<?xml version="1.0" encoding="utf-8"?>
<!-- Generator: Adobe Illustrator 16.0.3, SVG Export Plug-In . SVG Version: 6.00 Build 0)  -->
<!DOCTYPE svg PUBLIC "-//W3C//DTD SVG 1.1//EN" "http://www.w3.org/Graphics/SVG/1.1/DTD/svg11.dtd">
<svg version="1.1" id="レイヤー_1" xmlns="http://www.w3.org/2000/svg" xmlns:xlink="http://www.w3.org/1999/xlink" x="0px"
	 y="0px" width="909.327px" height="327.954px" viewBox="0 0 909.327 327.954" enable-background="new 0 0 909.327 327.954"
	 xml:space="preserve">
<g>
	<polygon fill-rule="evenodd" clip-rule="evenodd" fill="#DA6A14" points="4.26,50.134 108.065,50.134 108.065,139.659 
		4.26,139.659 4.26,50.134 	"/>
	<polygon fill-rule="evenodd" clip-rule="evenodd" fill="#B05621" points="108.065,50.134 116.58,41.619 116.58,131.145 
		108.065,139.659 108.065,50.134 	"/>
	<polygon fill-rule="evenodd" clip-rule="evenodd" fill="#E0863C" points="4.26,50.134 12.774,41.619 116.58,41.619 108.065,50.134 
		4.26,50.134 	"/>
	<path fill="none" stroke="#924923" stroke-width="2.04" stroke-miterlimit="8" d="M4.26,50.134l8.515-8.515H116.58v89.525
		l-8.515,8.515H4.26V50.134L4.26,50.134z M4.26,50.134h103.805l8.515-8.515 M108.065,50.134v89.525"/>
	<polygon fill-rule="evenodd" clip-rule="evenodd" fill="#DA6A14" points="189.3,67.907 265.853,67.907 265.853,140.5 189.3,140.5 
		189.3,67.907 	"/>
	<polygon fill-rule="evenodd" clip-rule="evenodd" fill="#B05621" points="265.853,67.907 291.3,42.459 291.3,115.052 
		265.853,140.5 265.853,67.907 	"/>
	<polygon fill-rule="evenodd" clip-rule="evenodd" fill="#E0863C" points="189.3,67.907 214.747,42.459 291.3,42.459 
		265.853,67.907 189.3,67.907 	"/>
	<path fill="none" stroke="#924923" stroke-width="2.04" stroke-miterlimit="8" d="M189.3,67.907l25.447-25.447H291.3v72.593
		L265.853,140.5H189.3V67.907L189.3,67.907z M189.3,67.907h76.553L291.3,42.459 M265.853,67.907V140.5"/>
	<polygon fill-rule="evenodd" clip-rule="evenodd" fill="#DA6A14" points="349.859,73.957 421.562,73.957 421.562,138.819 
		349.859,138.819 349.859,73.957 	"/>
	<polygon fill-rule="evenodd" clip-rule="evenodd" fill="#B05621" points="421.562,73.957 444.3,51.22 444.3,116.082 
		421.562,138.819 421.562,73.957 	"/>
	<polygon fill-rule="evenodd" clip-rule="evenodd" fill="#E0863C" points="349.859,73.957 372.597,51.22 444.3,51.22 
		421.562,73.957 349.859,73.957 	"/>
	<path fill="none" stroke="#924923" stroke-width="2.04" stroke-miterlimit="8" d="M349.859,73.957l22.737-22.737H444.3v64.862
		l-22.738,22.737h-71.702V73.957L349.859,73.957z M349.859,73.957h71.702L444.3,51.22 M421.562,73.957v64.862"/>
	<polygon fill-rule="evenodd" clip-rule="evenodd" fill="#DA6A14" points="512.819,73.748 575.611,73.748 575.611,135.819 
		512.819,135.819 512.819,73.748 	"/>
	<polygon fill-rule="evenodd" clip-rule="evenodd" fill="#B05621" points="575.611,73.748 599.939,49.419 599.939,111.491 
		575.611,135.819 575.611,73.748 	"/>
	<polygon fill-rule="evenodd" clip-rule="evenodd" fill="#E0863C" points="512.819,73.748 537.148,49.419 599.939,49.419 
		575.611,73.748 512.819,73.748 	"/>
	<path fill="none" stroke="#924923" stroke-width="2.04" stroke-miterlimit="8" d="M512.819,73.748l24.329-24.329h62.791v62.071
		l-24.328,24.329h-62.792V73.748L512.819,73.748z M512.819,73.748h62.792l24.328-24.329 M575.611,73.748v62.071"/>
	<polygon fill-rule="evenodd" clip-rule="evenodd" fill="#DA6A14" points="655.859,59.225 664.054,59.225 664.054,148.54 
		655.859,148.54 655.859,59.225 	"/>
	<polygon fill-rule="evenodd" clip-rule="evenodd" fill="#B05621" points="664.054,59.225 669.42,53.859 669.42,143.174 
		664.054,148.54 664.054,59.225 	"/>
	<polygon fill-rule="evenodd" clip-rule="evenodd" fill="#E0863C" points="655.859,59.225 661.226,53.859 669.42,53.859 
		664.054,59.225 655.859,59.225 	"/>
	<path fill="none" stroke="#924923" stroke-width="2.04" stroke-miterlimit="8" d="M655.859,59.225l5.366-5.366h8.194v89.314
		l-5.366,5.366h-8.194V59.225L655.859,59.225z M655.859,59.225h8.194l5.366-5.366 M664.054,59.225v89.314"/>
	<polygon fill-rule="evenodd" clip-rule="evenodd" fill="#F4BC8F" points="142.32,90.369 150.84,90.369 150.84,81.879 
		159.36,98.859 150.84,115.839 150.84,107.35 142.32,107.35 142.32,90.369 	"/>
	<path fill="#040000" d="M132.416,129.028c-0.254,0-0.469,0.04-0.642,0.119c-0.174,0.079-0.314,0.186-0.423,0.32
		c-0.108,0.134-0.186,0.291-0.232,0.472s-0.07,0.374-0.07,0.58c0,0.224,0.026,0.432,0.078,0.626
		c0.051,0.194,0.133,0.362,0.245,0.503c0.112,0.141,0.255,0.252,0.431,0.335s0.388,0.124,0.639,0.124
		c0.282,0,0.523-0.057,0.725-0.172s0.354-0.286,0.459-0.513s0.157-0.495,0.157-0.804c0-0.33-0.057-0.615-0.17-0.854
		c-0.113-0.239-0.273-0.421-0.479-0.546C132.926,129.091,132.688,129.028,132.416,129.028L132.416,129.028z M132.441,125.779
		c-0.433,0-0.764,0.118-0.992,0.354c-0.229,0.235-0.343,0.57-0.343,1.003c0,0.203,0.024,0.394,0.072,0.572
		c0.048,0.179,0.125,0.333,0.232,0.464c0.107,0.131,0.245,0.235,0.415,0.312c0.17,0.077,0.379,0.116,0.626,0.116
		c0.286,0,0.525-0.056,0.72-0.168c0.194-0.111,0.338-0.275,0.433-0.49c0.094-0.215,0.142-0.463,0.142-0.745
		c0-0.309-0.056-0.571-0.167-0.786s-0.266-0.374-0.461-0.477C132.921,125.831,132.696,125.779,132.441,125.779L132.441,125.779z
		 M132.452,125.341c0.495,0,0.911,0.069,1.248,0.208c0.337,0.14,0.59,0.34,0.761,0.604c0.17,0.263,0.255,0.578,0.255,0.946
		c0,0.378-0.093,0.704-0.278,0.977c-0.186,0.273-0.473,0.496-0.861,0.667l0.01,0.067c0.388,0.151,0.682,0.372,0.881,0.663
		c0.2,0.29,0.299,0.64,0.299,1.049c0,0.402-0.096,0.756-0.289,1.062c-0.193,0.306-0.472,0.542-0.838,0.709
		c-0.366,0.167-0.793,0.25-1.282,0.25c-0.457,0-0.858-0.077-1.204-0.229c-0.346-0.153-0.614-0.376-0.805-0.67
		c-0.19-0.294-0.286-0.64-0.286-1.039c0-0.299,0.052-0.559,0.155-0.778c0.103-0.22,0.238-0.401,0.405-0.544s0.377-0.272,0.632-0.389
		l-0.011-0.067c-0.739-0.319-1.108-0.868-1.108-1.645c0-0.354,0.097-0.67,0.292-0.949c0.194-0.279,0.471-0.497,0.83-0.655
		C131.618,125.42,132.015,125.341,132.452,125.341L132.452,125.341z M126.577,125.341c0.639,0,1.122,0.14,1.449,0.42
		c0.327,0.28,0.49,0.687,0.49,1.22c0,0.182-0.018,0.35-0.054,0.502c-0.036,0.153-0.093,0.304-0.17,0.454
		c-0.077,0.149-0.181,0.31-0.312,0.482c-0.13,0.172-0.275,0.346-0.433,0.523c-0.158,0.177-0.431,0.472-0.82,0.884
		c-0.653,0.691-1.133,1.294-1.438,1.81h1.944c0.168,0,0.304-0.01,0.407-0.031s0.186-0.055,0.248-0.103
		c0.062-0.048,0.111-0.111,0.147-0.188c0.036-0.077,0.082-0.197,0.137-0.358h0.438l-0.087,1.505h-4.244v-0.248
		c0.148-0.361,0.347-0.73,0.598-1.108c0.251-0.378,0.607-0.823,1.067-1.335c0.399-0.44,0.686-0.773,0.861-1
		c0.193-0.248,0.336-0.461,0.431-0.642c0.095-0.18,0.163-0.351,0.204-0.51c0.042-0.16,0.062-0.321,0.062-0.482
		c0-0.258-0.041-0.486-0.124-0.684c-0.083-0.197-0.209-0.353-0.379-0.466c-0.17-0.114-0.384-0.17-0.642-0.17
		c-0.643,0-1.076,0.357-1.299,1.073h-0.624v-0.99c0.416-0.196,0.805-0.337,1.168-0.425
		C125.962,125.385,126.288,125.341,126.577,125.341L126.577,125.341z M121.063,125.341h0.284c-0.021,0.33-0.031,0.787-0.031,1.372
		v4.403c0,0.199,0.011,0.35,0.033,0.451c0.022,0.102,0.062,0.184,0.119,0.248s0.139,0.113,0.245,0.149s0.241,0.063,0.402,0.083
		c0.161,0.019,0.375,0.032,0.639,0.039v0.376h-3.811v-0.376c0.382-0.017,0.654-0.041,0.817-0.069
		c0.163-0.029,0.288-0.073,0.374-0.132c0.086-0.058,0.148-0.141,0.188-0.248c0.04-0.106,0.059-0.28,0.059-0.521v-4.182
		c0-0.138-0.024-0.238-0.072-0.302c-0.048-0.063-0.119-0.095-0.211-0.095c-0.11,0-0.267,0.057-0.469,0.17
		c-0.203,0.113-0.454,0.27-0.753,0.469l-0.227-0.397L121.063,125.341L121.063,125.341z"/>
	<path fill="#040000" d="M136.249,131.266h1.031v1.196h-1.031V131.266L136.249,131.266z M136.249,127.806h1.031v1.207h-1.031
		V127.806L136.249,127.806z"/>
	<path fill="#040000" d="M145.156,125.341c0.389,0,0.729,0.06,1.021,0.18c0.292,0.121,0.516,0.293,0.67,0.519
		c0.155,0.225,0.232,0.494,0.232,0.807c0,0.292-0.058,0.549-0.175,0.771c-0.117,0.222-0.281,0.415-0.492,0.58
		s-0.486,0.327-0.823,0.485v0.046c0.21,0.038,0.412,0.102,0.606,0.193c0.194,0.091,0.367,0.208,0.518,0.353
		c0.151,0.145,0.272,0.317,0.364,0.518s0.137,0.431,0.137,0.688c0,0.399-0.087,0.753-0.26,1.062
		c-0.174,0.31-0.439,0.554-0.797,0.732s-0.792,0.268-1.305,0.268c-0.295,0-0.614-0.034-0.957-0.101
		c-0.342-0.067-0.655-0.155-0.941-0.266v-1.093h0.619c0.121,0.357,0.279,0.617,0.477,0.778s0.467,0.242,0.807,0.242
		c0.447,0,0.785-0.122,1.013-0.366s0.343-0.605,0.343-1.083c0-0.502-0.151-0.885-0.454-1.15c-0.303-0.265-0.746-0.397-1.331-0.397
		h-0.464v-0.454c0.464-0.028,0.855-0.117,1.173-0.268c0.318-0.151,0.555-0.346,0.709-0.583c0.155-0.237,0.232-0.503,0.232-0.799
		c0-0.382-0.102-0.676-0.304-0.882c-0.203-0.207-0.499-0.31-0.887-0.31c-0.323,0-0.586,0.088-0.789,0.263
		c-0.203,0.175-0.353,0.443-0.449,0.804h-0.619v-0.979c0.398-0.189,0.771-0.33,1.119-0.423S144.833,125.341,145.156,125.341
		L145.156,125.341z"/>
	<polygon fill="#040000" points="151.826,126.62 154.162,128.951 156.498,126.62 156.982,127.1 154.672,129.451 156.988,131.792 
		156.472,132.307 154.162,129.951 151.78,132.287 151.3,131.802 153.657,129.451 151.311,127.136 151.826,126.62 	"/>
	<path fill="#040000" d="M163.156,125.341c0.389,0,0.729,0.06,1.021,0.18c0.292,0.121,0.516,0.293,0.67,0.519
		c0.155,0.225,0.232,0.494,0.232,0.807c0,0.292-0.058,0.549-0.175,0.771c-0.117,0.222-0.281,0.415-0.492,0.58
		s-0.486,0.327-0.823,0.485v0.046c0.21,0.038,0.412,0.102,0.606,0.193c0.194,0.091,0.367,0.208,0.518,0.353
		c0.151,0.145,0.272,0.317,0.364,0.518s0.137,0.431,0.137,0.688c0,0.399-0.087,0.753-0.26,1.062
		c-0.174,0.31-0.439,0.554-0.797,0.732s-0.792,0.268-1.305,0.268c-0.295,0-0.614-0.034-0.957-0.101
		c-0.342-0.067-0.655-0.155-0.941-0.266v-1.093h0.619c0.121,0.357,0.279,0.617,0.477,0.778s0.467,0.242,0.807,0.242
		c0.447,0,0.785-0.122,1.013-0.366s0.343-0.605,0.343-1.083c0-0.502-0.151-0.885-0.454-1.15c-0.303-0.265-0.746-0.397-1.331-0.397
		h-0.464v-0.454c0.464-0.028,0.855-0.117,1.173-0.268c0.318-0.151,0.555-0.346,0.709-0.583c0.155-0.237,0.232-0.503,0.232-0.799
		c0-0.382-0.102-0.676-0.304-0.882c-0.203-0.207-0.499-0.31-0.887-0.31c-0.323,0-0.586,0.088-0.789,0.263
		c-0.203,0.175-0.353,0.443-0.449,0.804h-0.619v-0.979c0.398-0.189,0.771-0.33,1.119-0.423S162.833,125.341,163.156,125.341
		L163.156,125.341z"/>
	<polygon fill="#040000" points="169.826,126.62 172.162,128.951 174.498,126.62 174.982,127.1 172.672,129.451 174.988,131.792 
		174.472,132.307 172.162,129.951 169.78,132.287 169.3,131.802 171.657,129.451 169.311,127.136 169.826,126.62 	"/>
	<path fill="#040000" d="M181.625,127.45c0.458,0,0.878,0.051,1.264,0.155l-0.253,1.165h-0.542c-0.007-0.261-0.028-0.45-0.064-0.567
		c-0.036-0.117-0.094-0.205-0.175-0.263c-0.081-0.059-0.195-0.088-0.343-0.088c-0.347,0-0.659,0.139-0.936,0.416
		c-0.276,0.276-0.502,0.668-0.678,1.175c-0.175,0.507-0.263,0.995-0.263,1.462c0,0.351,0.069,0.611,0.207,0.781
		c0.137,0.17,0.344,0.255,0.619,0.255c0.313,0,0.583-0.06,0.812-0.178s0.47-0.305,0.725-0.56l0.314,0.315
		c-0.323,0.357-0.649,0.619-0.977,0.784c-0.329,0.165-0.682,0.248-1.06,0.248c-0.499,0-0.877-0.148-1.135-0.444
		c-0.258-0.295-0.387-0.725-0.387-1.289c0-0.368,0.069-0.771,0.207-1.211c0.137-0.44,0.338-0.827,0.603-1.16
		s0.574-0.583,0.928-0.748S181.224,127.45,181.625,127.45L181.625,127.45z"/>
	<text transform="matrix(1 0 0 1 110.8848 148.4043)"><tspan x="0" y="0" fill="#040000" font-family="'TimesNewRomanPSMT'" font-size="14.04">C</tspan><tspan x="9.365" y="0" fill="#040000" font-family="'TimesNewRomanPSMT'" font-size="14.04">onv</tspan><tspan x="30.593" y="0" fill="#040000" font-family="'TimesNewRomanPSMT'" font-size="14.04"> </tspan><tspan x="33.836" y="0" fill="#040000" font-family="'TimesNewRomanPSMT'" font-size="14.04">+</tspan><tspan x="41.754" y="0" fill="#040000" font-family="'TimesNewRomanPSMT'" font-size="14.04"> </tspan><tspan x="45.236" y="0" fill="#040000" font-family="'TimesNewRomanPSMT'" font-size="14.04">Re</tspan><tspan x="60.832" y="0" fill="#040000" font-family="'TimesNewRomanPSMT'" font-size="14.04">L</tspan><tspan x="69.352" y="0" fill="#040000" font-family="'TimesNewRomanPSMT'" font-size="14.04">U</tspan></text>
	<path fill="#040000" d="M304.093,122.446c0.668,0,1.174,0.146,1.515,0.439c0.342,0.293,0.513,0.718,0.513,1.275
		c0,0.19-0.02,0.366-0.057,0.525c-0.038,0.16-0.098,0.318-0.178,0.475c-0.082,0.156-0.189,0.324-0.326,0.504
		s-0.288,0.362-0.453,0.547c-0.166,0.185-0.451,0.494-0.857,0.925c-0.683,0.722-1.184,1.353-1.504,1.892h2.032
		c0.177,0,0.318-0.011,0.426-0.032c0.108-0.022,0.194-0.058,0.259-0.108s0.116-0.116,0.154-0.197
		c0.037-0.081,0.085-0.206,0.143-0.375h0.458l-0.092,1.574h-4.437v-0.259c0.154-0.377,0.363-0.764,0.625-1.159
		c0.263-0.396,0.635-0.861,1.116-1.396c0.417-0.46,0.718-0.809,0.9-1.045c0.201-0.259,0.351-0.483,0.45-0.671
		c0.099-0.188,0.17-0.367,0.213-0.534s0.064-0.335,0.064-0.504c0-0.27-0.043-0.508-0.129-0.714s-0.219-0.369-0.396-0.488
		s-0.402-0.178-0.672-0.178c-0.672,0-1.124,0.374-1.357,1.121h-0.652v-1.035c0.435-0.205,0.842-0.353,1.221-0.445
		C303.45,122.492,303.791,122.446,304.093,122.446L304.093,122.446z"/>
	<polygon fill="#040000" points="311.033,123.783 313.476,126.22 315.917,123.783 316.424,124.285 314.009,126.743 316.429,129.19 
		315.89,129.729 313.476,127.266 310.985,129.708 310.483,129.201 312.947,126.743 310.494,124.322 311.033,123.783 	"/>
	<path fill="#040000" d="M322.933,122.446c0.668,0,1.174,0.146,1.516,0.439c0.341,0.293,0.512,0.718,0.512,1.275
		c0,0.19-0.02,0.366-0.057,0.525c-0.038,0.16-0.098,0.318-0.178,0.475c-0.081,0.156-0.189,0.324-0.326,0.504
		s-0.287,0.362-0.453,0.547s-0.451,0.494-0.857,0.925c-0.683,0.722-1.184,1.353-1.504,1.892h2.033c0.176,0,0.317-0.011,0.426-0.032
		c0.107-0.022,0.193-0.058,0.258-0.108s0.116-0.116,0.154-0.197c0.037-0.081,0.085-0.206,0.143-0.375h0.458l-0.091,1.574h-4.438
		v-0.259c0.154-0.377,0.363-0.764,0.625-1.159c0.264-0.396,0.635-0.861,1.117-1.396c0.416-0.46,0.717-0.809,0.899-1.045
		c0.201-0.259,0.352-0.483,0.45-0.671s0.17-0.367,0.213-0.534s0.064-0.335,0.064-0.504c0-0.27-0.043-0.508-0.129-0.714
		s-0.219-0.369-0.396-0.488s-0.401-0.178-0.671-0.178c-0.673,0-1.125,0.374-1.358,1.121h-0.652v-1.035
		c0.435-0.205,0.842-0.353,1.221-0.445C322.29,122.492,322.631,122.446,322.933,122.446L322.933,122.446z"/>
	<text transform="matrix(1 0 0 1 276.752 145.9512)" fill="#040000" font-family="'TimesNewRomanPSMT'" font-size="14.04">Max</text>
	<text transform="matrix(1 0 0 1 302.5566 145.9512)" fill="#040000" font-family="'TimesNewRomanPSMT'" font-size="14.04">-</text>
	<text transform="matrix(1 0 0 1 307.2285 145.9512)"><tspan x="0" y="0" fill="#040000" font-family="'TimesNewRomanPSMT'" font-size="14.04">poo</tspan><tspan x="21.229" y="0" fill="#040000" font-family="'TimesNewRomanPSMT'" font-size="14.04">l</tspan><tspan x="25.073" y="0" fill="#040000" font-family="'TimesNewRomanPSMT'" font-size="14.04">i</tspan><tspan x="29.03" y="0" fill="#040000" font-family="'TimesNewRomanPSMT'" font-size="14.04">n</tspan><tspan x="35.994" y="0" fill="#040000" font-family="'TimesNewRomanPSMT'" font-size="14.04">g</tspan></text>
	<polygon fill-rule="evenodd" clip-rule="evenodd" fill="#F4BC8F" points="310.2,89.199 318.72,89.199 318.72,80.68 327.239,97.719 
		318.72,114.759 318.72,106.239 310.2,106.239 310.2,89.199 	"/>
	<polygon fill-rule="evenodd" clip-rule="evenodd" fill="#F4BC8F" points="611.52,89.409 620.04,89.409 620.04,80.919 
		628.56,97.899 620.04,114.879 620.04,106.39 611.52,106.39 611.52,89.409 	"/>
	<polygon fill-rule="evenodd" clip-rule="evenodd" fill="#F4BC8F" points="468.96,89.199 477.479,89.199 477.479,80.68 486,97.719 
		477.479,114.759 477.479,106.239 468.96,106.239 468.96,89.199 	"/>
	<path fill="#040000" d="M450.229,130.128c-0.16,0-0.313,0.018-0.46,0.053s-0.286,0.087-0.416,0.156
		c-0.13,0.068-0.257,0.154-0.38,0.258c-0.039,0.036-0.067,0.073-0.087,0.112c-0.032,0.062-0.054,0.138-0.063,0.229
		s-0.015,0.243-0.015,0.457c0,0.619,0.104,1.091,0.312,1.416s0.521,0.486,0.943,0.486c0.243,0,0.447-0.042,0.613-0.126
		c0.165-0.084,0.299-0.2,0.4-0.348c0.103-0.147,0.176-0.321,0.219-0.52c0.045-0.2,0.066-0.416,0.066-0.649
		c0-0.48-0.1-0.854-0.297-1.121S450.589,130.128,450.229,130.128L450.229,130.128z M451.479,126.914l0.2,0.268v0.238
		c-0.5,0-0.942,0.107-1.328,0.321s-0.706,0.529-0.961,0.943c-0.254,0.415-0.434,0.908-0.537,1.479l0.049,0.02
		c0.272-0.194,0.541-0.337,0.805-0.428s0.551-0.136,0.858-0.136c0.366,0,0.679,0.08,0.937,0.241c0.258,0.16,0.451,0.386,0.581,0.676
		c0.13,0.291,0.194,0.63,0.194,1.019c0,0.421-0.081,0.793-0.243,1.116c-0.162,0.322-0.413,0.576-0.751,0.761
		c-0.34,0.185-0.757,0.277-1.253,0.277c-0.71,0-1.245-0.22-1.606-0.661c-0.362-0.441-0.543-1.091-0.543-1.95
		c0-0.577,0.091-1.117,0.272-1.62s0.439-0.941,0.773-1.315c0.333-0.375,0.722-0.669,1.162-0.885
		C450.528,127.061,450.992,126.939,451.479,126.914L451.479,126.914z M439.004,126.914c0.603,0,1.059,0.132,1.366,0.396
		c0.309,0.264,0.463,0.647,0.463,1.15c0,0.172-0.018,0.33-0.051,0.474c-0.035,0.145-0.088,0.287-0.161,0.428
		s-0.171,0.292-0.294,0.455s-0.26,0.327-0.408,0.494c-0.15,0.167-0.407,0.445-0.773,0.834c-0.616,0.652-1.068,1.221-1.357,1.707
		h1.834c0.158,0,0.287-0.01,0.384-0.029c0.097-0.019,0.175-0.052,0.233-0.097s0.104-0.104,0.139-0.177
		c0.034-0.073,0.077-0.186,0.129-0.338h0.414l-0.084,1.42h-4.002v-0.233c0.14-0.341,0.328-0.689,0.564-1.046
		c0.236-0.356,0.572-0.776,1.006-1.259c0.377-0.415,0.647-0.729,0.813-0.944c0.182-0.233,0.317-0.435,0.406-0.605
		c0.09-0.17,0.153-0.331,0.192-0.481c0.038-0.15,0.058-0.302,0.058-0.455c0-0.243-0.038-0.458-0.116-0.645
		c-0.077-0.186-0.196-0.333-0.357-0.44s-0.362-0.161-0.605-0.161c-0.606,0-1.015,0.337-1.226,1.012h-0.588v-0.934
		c0.392-0.185,0.759-0.319,1.102-0.401C438.425,126.955,438.731,126.914,439.004,126.914L439.004,126.914z M445.886,126.67h0.379
		l-0.072,1.128h-2.797v2.135c0.169-0.071,0.352-0.125,0.55-0.16c0.198-0.036,0.396-0.054,0.593-0.054
		c0.387,0,0.729,0.079,1.027,0.236c0.298,0.157,0.527,0.381,0.689,0.671c0.162,0.29,0.244,0.626,0.244,1.009
		c0,0.435-0.092,0.808-0.273,1.119c-0.181,0.311-0.443,0.548-0.787,0.71s-0.75,0.243-1.221,0.243c-0.561,0-1.148-0.115-1.761-0.345
		v-1.031h0.589c0.098,0.331,0.244,0.574,0.439,0.729c0.197,0.156,0.45,0.234,0.762,0.234c0.432,0,0.757-0.13,0.978-0.389
		c0.22-0.259,0.331-0.647,0.331-1.163c0-0.343-0.059-0.628-0.176-0.854c-0.117-0.225-0.273-0.388-0.472-0.489s-0.428-0.15-0.69-0.15
		c-0.221,0-0.41,0.014-0.568,0.041c-0.16,0.028-0.33,0.071-0.512,0.129l-0.389-0.229v-3.2h2.68c0.11,0,0.189-0.009,0.238-0.026
		c0.049-0.018,0.088-0.045,0.117-0.083C445.813,126.845,445.847,126.774,445.886,126.67L445.886,126.67z"/>
	<path fill="#040000" d="M453.595,132.501h0.973v1.128h-0.973V132.501L453.595,132.501z M453.595,129.238h0.973v1.138h-0.973
		V129.238L453.595,129.238z"/>
	<path fill="#040000" d="M462.024,126.914c0.366,0,0.688,0.057,0.963,0.17c0.275,0.113,0.486,0.276,0.633,0.489
		c0.146,0.212,0.219,0.466,0.219,0.761c0,0.276-0.056,0.518-0.166,0.727c-0.109,0.209-0.265,0.392-0.464,0.547
		s-0.458,0.308-0.775,0.457v0.044c0.197,0.036,0.388,0.096,0.571,0.182c0.183,0.086,0.346,0.197,0.488,0.333
		c0.143,0.136,0.257,0.299,0.343,0.489c0.086,0.189,0.129,0.406,0.129,0.649c0,0.376-0.082,0.71-0.245,1.002
		c-0.164,0.292-0.414,0.522-0.752,0.69c-0.337,0.168-0.747,0.253-1.23,0.253c-0.278,0-0.579-0.032-0.901-0.095
		c-0.323-0.063-0.619-0.147-0.888-0.25v-1.031h0.583c0.114,0.337,0.264,0.582,0.45,0.734s0.44,0.229,0.761,0.229
		c0.422,0,0.74-0.115,0.956-0.346c0.216-0.23,0.323-0.57,0.323-1.021c0-0.474-0.143-0.835-0.428-1.084
		c-0.285-0.25-0.704-0.375-1.255-0.375h-0.438v-0.428c0.438-0.026,0.807-0.11,1.106-0.253c0.3-0.143,0.522-0.326,0.669-0.549
		c0.146-0.224,0.219-0.475,0.219-0.754c0-0.36-0.096-0.637-0.287-0.832s-0.471-0.292-0.837-0.292c-0.305,0-0.553,0.083-0.744,0.248
		c-0.191,0.166-0.332,0.418-0.423,0.759h-0.584v-0.924c0.377-0.178,0.729-0.312,1.056-0.399S461.72,126.914,462.024,126.914
		L462.024,126.914z"/>
	<polygon fill="#040000" points="468.299,128.12 470.502,130.318 472.705,128.12 473.162,128.572 470.983,130.79 473.167,132.998 
		472.681,133.484 470.502,131.261 468.256,133.464 467.803,133.007 470.025,130.79 467.813,128.606 468.299,128.12 	"/>
	<path fill="#040000" d="M479.064,126.914c0.366,0,0.688,0.057,0.963,0.17c0.275,0.113,0.486,0.276,0.633,0.489
		c0.146,0.212,0.219,0.466,0.219,0.761c0,0.276-0.056,0.518-0.166,0.727c-0.109,0.209-0.265,0.392-0.464,0.547
		s-0.458,0.308-0.775,0.457v0.044c0.197,0.036,0.388,0.096,0.571,0.182c0.183,0.086,0.346,0.197,0.488,0.333
		c0.143,0.136,0.257,0.299,0.343,0.489c0.086,0.189,0.129,0.406,0.129,0.649c0,0.376-0.082,0.71-0.245,1.002
		c-0.164,0.292-0.414,0.522-0.752,0.69c-0.337,0.168-0.747,0.253-1.23,0.253c-0.278,0-0.579-0.032-0.901-0.095
		c-0.323-0.063-0.619-0.147-0.888-0.25v-1.031h0.583c0.114,0.337,0.264,0.582,0.45,0.734s0.44,0.229,0.761,0.229
		c0.422,0,0.74-0.115,0.956-0.346c0.216-0.23,0.323-0.57,0.323-1.021c0-0.474-0.143-0.835-0.428-1.084
		c-0.285-0.25-0.704-0.375-1.255-0.375h-0.438v-0.428c0.438-0.026,0.807-0.11,1.106-0.253c0.3-0.143,0.522-0.326,0.669-0.549
		c0.146-0.224,0.219-0.475,0.219-0.754c0-0.36-0.096-0.637-0.287-0.832s-0.471-0.292-0.837-0.292c-0.305,0-0.553,0.083-0.744,0.248
		c-0.191,0.166-0.332,0.418-0.423,0.759h-0.584v-0.924c0.377-0.178,0.729-0.312,1.056-0.399S478.76,126.914,479.064,126.914
		L479.064,126.914z"/>
	<polygon fill="#040000" points="485.339,128.12 487.542,130.318 489.745,128.12 490.202,128.572 488.023,130.79 490.207,132.998 
		489.721,133.484 487.542,131.261 485.295,133.464 484.843,133.007 487.065,130.79 484.853,128.606 485.339,128.12 	"/>
	<path fill="#040000" d="M507.125,130.391c-0.239,0-0.441,0.038-0.605,0.112c-0.163,0.074-0.297,0.175-0.398,0.301
		c-0.103,0.126-0.175,0.275-0.219,0.445c-0.044,0.17-0.065,0.353-0.065,0.547c0,0.21,0.023,0.408,0.072,0.591
		s0.126,0.341,0.231,0.474s0.24,0.238,0.406,0.316c0.165,0.078,0.366,0.117,0.603,0.117c0.266,0,0.494-0.055,0.684-0.163
		c0.189-0.109,0.334-0.27,0.433-0.484s0.148-0.467,0.148-0.759c0-0.311-0.054-0.58-0.16-0.805c-0.107-0.226-0.258-0.397-0.453-0.516
		C507.606,130.45,507.381,130.391,507.125,130.391L507.125,130.391z M507.149,127.327c-0.408,0-0.721,0.111-0.937,0.333
		c-0.215,0.222-0.323,0.537-0.323,0.946c0,0.191,0.023,0.371,0.068,0.54c0.045,0.168,0.118,0.314,0.219,0.438
		s0.231,0.221,0.392,0.294c0.16,0.073,0.357,0.109,0.591,0.109c0.27,0,0.495-0.053,0.679-0.158c0.183-0.105,0.319-0.259,0.408-0.462
		s0.134-0.437,0.134-0.703c0-0.292-0.053-0.539-0.158-0.742s-0.25-0.353-0.436-0.45C507.602,127.375,507.39,127.327,507.149,127.327
		L507.149,127.327z M507.159,126.914c0.467,0,0.859,0.066,1.177,0.197c0.318,0.131,0.557,0.321,0.718,0.569
		c0.16,0.248,0.24,0.545,0.24,0.892c0,0.357-0.087,0.664-0.263,0.922c-0.175,0.258-0.445,0.468-0.812,0.63l0.01,0.063
		c0.366,0.143,0.644,0.351,0.831,0.625c0.188,0.274,0.282,0.604,0.282,0.99c0,0.379-0.091,0.713-0.272,1.002
		s-0.444,0.511-0.79,0.668s-0.748,0.236-1.209,0.236c-0.431,0-0.81-0.072-1.135-0.216c-0.326-0.145-0.579-0.355-0.759-0.632
		c-0.181-0.277-0.271-0.604-0.271-0.98c0-0.282,0.049-0.527,0.146-0.734c0.097-0.208,0.225-0.378,0.382-0.513
		c0.157-0.134,0.355-0.257,0.596-0.367l-0.01-0.063c-0.697-0.302-1.046-0.819-1.046-1.551c0-0.334,0.092-0.632,0.274-0.895
		c0.184-0.263,0.444-0.468,0.783-0.618C506.372,126.988,506.747,126.914,507.159,126.914L507.159,126.914z M501.645,126.914
		c0.603,0,1.059,0.132,1.366,0.396s0.462,0.647,0.462,1.15c0,0.172-0.017,0.33-0.051,0.474c-0.034,0.145-0.088,0.287-0.161,0.428
		c-0.072,0.141-0.171,0.292-0.294,0.455s-0.259,0.327-0.408,0.494s-0.407,0.445-0.773,0.834c-0.616,0.652-1.068,1.221-1.356,1.707
		h1.833c0.159,0,0.287-0.01,0.384-0.029c0.098-0.019,0.176-0.052,0.233-0.097c0.059-0.045,0.105-0.104,0.139-0.177
		c0.034-0.073,0.077-0.186,0.129-0.338h0.414l-0.083,1.42h-4.003v-0.233c0.14-0.341,0.328-0.689,0.564-1.046
		c0.237-0.356,0.572-0.776,1.007-1.259c0.376-0.415,0.646-0.729,0.813-0.944c0.182-0.233,0.316-0.435,0.406-0.605
		c0.089-0.17,0.152-0.331,0.191-0.481c0.039-0.15,0.059-0.302,0.059-0.455c0-0.243-0.039-0.458-0.117-0.645
		c-0.077-0.186-0.196-0.333-0.357-0.44c-0.16-0.107-0.362-0.161-0.605-0.161c-0.605,0-1.015,0.337-1.226,1.012h-0.588v-0.934
		c0.393-0.185,0.76-0.319,1.102-0.401S501.372,126.914,501.645,126.914L501.645,126.914z M496.47,126.914h0.268
		c-0.02,0.311-0.029,0.743-0.029,1.293v4.153c0,0.188,0.01,0.33,0.031,0.426s0.059,0.173,0.112,0.233
		c0.053,0.06,0.13,0.107,0.23,0.141c0.101,0.034,0.228,0.06,0.38,0.078c0.152,0.018,0.353,0.03,0.603,0.037v0.355h-3.594v-0.355
		c0.359-0.016,0.616-0.038,0.771-0.066c0.154-0.027,0.271-0.069,0.353-0.124s0.141-0.133,0.178-0.233s0.056-0.264,0.056-0.491
		v-3.944c0-0.13-0.022-0.225-0.067-0.285c-0.046-0.06-0.112-0.09-0.2-0.09c-0.104,0-0.251,0.053-0.442,0.16
		c-0.191,0.107-0.428,0.255-0.71,0.443l-0.214-0.375L496.47,126.914L496.47,126.914z"/>
	<text transform="matrix(1 0 0 1 433.3223 149.5762)"><tspan x="0" y="0" fill="#040000" font-family="'TimesNewRomanPSMT'" font-size="14.04">C</tspan><tspan x="9.365" y="0" fill="#040000" font-family="'TimesNewRomanPSMT'" font-size="14.04">onv</tspan><tspan x="30.594" y="0" fill="#040000" font-family="'TimesNewRomanPSMT'" font-size="14.04"> </tspan><tspan x="33.836" y="0" fill="#040000" font-family="'TimesNewRomanPSMT'" font-size="14.04">+</tspan><tspan x="41.754" y="0" fill="#040000" font-family="'TimesNewRomanPSMT'" font-size="14.04"> </tspan><tspan x="45.236" y="0" fill="#040000" font-family="'TimesNewRomanPSMT'" font-size="14.04">Re</tspan><tspan x="60.832" y="0" fill="#040000" font-family="'TimesNewRomanPSMT'" font-size="14.04">L</tspan><tspan x="69.352" y="0" fill="#040000" font-family="'TimesNewRomanPSMT'" font-size="14.04">U</tspan></text>
	<path fill="#FFFFFF" d="M18.68,80.898c-0.765,0-1.148,0.57-1.148,1.709c0,1.046,0.332,1.569,0.997,1.569
		c0.133,0,0.257-0.013,0.372-0.038c0.115-0.025,0.224-0.063,0.326-0.116s0.198-0.115,0.286-0.188
		c0.088-0.074,0.146-0.134,0.175-0.181c0.029-0.047,0.053-0.115,0.073-0.205c0.02-0.09,0.029-0.212,0.029-0.366
		c0-0.705-0.094-1.245-0.283-1.62C19.319,81.086,19.043,80.898,18.68,80.898L18.68,80.898z M18.734,80.295
		c0.859,0,1.515,0.261,1.967,0.784c0.453,0.523,0.679,1.28,0.679,2.272c0,1.344-0.336,2.402-1.008,3.175
		c-0.672,0.772-1.639,1.206-2.9,1.299l-0.28-0.318v-0.388c0.396-0.007,0.732-0.068,1.011-0.183c0.279-0.115,0.521-0.278,0.728-0.488
		c0.207-0.21,0.377-0.478,0.512-0.803s0.233-0.743,0.294-1.253l-0.054-0.021c-0.277,0.19-0.549,0.329-0.817,0.415
		c-0.268,0.086-0.588,0.129-0.962,0.129c-0.618,0-1.101-0.191-1.447-0.574c-0.347-0.382-0.52-0.916-0.52-1.598
		c0-0.478,0.112-0.905,0.337-1.28s0.547-0.664,0.968-0.865C17.662,80.396,18.159,80.295,18.734,80.295L18.734,80.295z"/>
	<polygon fill="#FFFFFF" points="26.043,81.632 28.485,84.068 30.927,81.632 31.434,82.133 29.019,84.591 31.439,87.039 
		30.9,87.578 28.485,85.114 25.995,87.556 25.493,87.049 27.957,84.591 25.504,82.171 26.043,81.632 	"/>
	<path fill="#FFFFFF" d="M38.12,80.898c-0.765,0-1.148,0.57-1.148,1.709c0,1.046,0.333,1.569,0.997,1.569
		c0.133,0,0.257-0.013,0.372-0.038c0.115-0.025,0.224-0.063,0.326-0.116s0.198-0.115,0.286-0.188
		c0.088-0.074,0.146-0.134,0.175-0.181c0.029-0.047,0.053-0.115,0.073-0.205c0.02-0.09,0.03-0.212,0.03-0.366
		c0-0.705-0.095-1.245-0.283-1.62S38.483,80.898,38.12,80.898L38.12,80.898z M38.174,80.295c0.859,0,1.515,0.261,1.967,0.784
		c0.453,0.523,0.679,1.28,0.679,2.272c0,1.344-0.336,2.402-1.008,3.175s-1.639,1.206-2.9,1.299l-0.28-0.318v-0.388
		c0.396-0.007,0.732-0.068,1.011-0.183c0.279-0.115,0.521-0.278,0.728-0.488c0.207-0.21,0.377-0.478,0.512-0.803
		s0.233-0.743,0.294-1.253l-0.054-0.021c-0.277,0.19-0.549,0.329-0.817,0.415c-0.268,0.086-0.588,0.129-0.962,0.129
		c-0.618,0-1.101-0.191-1.448-0.574c-0.347-0.382-0.52-0.916-0.52-1.598c0-0.478,0.112-0.905,0.337-1.28s0.547-0.664,0.968-0.865
		S37.599,80.295,38.174,80.295L38.174,80.295z"/>
	<polygon fill="#FFFFFF" points="45.363,81.632 47.805,84.068 50.247,81.632 50.753,82.133 48.338,84.591 50.759,87.039 
		50.22,87.578 47.805,85.114 45.314,87.556 44.813,87.049 47.276,84.591 44.824,82.171 45.363,81.632 	"/>
	<path fill="#FFFFFF" d="M57.483,82.306c0.291,0,0.581,0.021,0.871,0.062c0.289,0.041,0.553,0.098,0.79,0.169v1.299h-1.067
		c-0.054-0.338-0.135-0.584-0.242-0.738c-0.108-0.155-0.263-0.232-0.464-0.232c-0.331,0-0.58,0.178-0.747,0.534
		s-0.25,0.893-0.25,1.612c0,0.661,0.097,1.154,0.291,1.479c0.194,0.325,0.496,0.488,0.906,0.488c0.208,0,0.405-0.045,0.59-0.135
		c0.185-0.09,0.403-0.251,0.655-0.485l0.415,0.501c-0.352,0.345-0.693,0.592-1.021,0.741c-0.329,0.149-0.688,0.224-1.076,0.224
		c-0.78,0-1.375-0.229-1.784-0.688c-0.41-0.458-0.614-1.124-0.614-1.997c0-0.589,0.112-1.099,0.337-1.528
		c0.225-0.43,0.547-0.755,0.967-0.976C56.459,82.416,56.941,82.306,57.483,82.306L57.483,82.306z"/>
	<text transform="matrix(1 0 0 1 63.5332 87.7402)" fill="#FFFFFF" font-family="'TimesNewRomanPS-BoldMT'" font-size="12">–</text>
	<text transform="matrix(1 0 0 1 69.5254 87.7402)"><tspan x="0" y="0" fill="#FFFFFF" font-family="'TimesNewRomanPS-BoldMT'" font-size="12">d</tspan><tspan x="6.71" y="0" fill="#FFFFFF" font-family="'TimesNewRomanPS-BoldMT'" font-size="12">i</tspan><tspan x="10.068" y="0" fill="#FFFFFF" font-family="'TimesNewRomanPS-BoldMT'" font-size="12">m</tspan><tspan x="19.908" y="0" fill="#FFFFFF" font-family="'TimesNewRomanPS-BoldMT'" font-size="12">.</tspan></text>
	<text transform="matrix(1 0 0 1 19.252 103.0996)"><tspan x="0" y="0" fill="#FFFFFF" font-family="'TimesNewRomanPS-BoldMT'" font-size="12">v</tspan><tspan x="6" y="0" fill="#FFFFFF" font-family="'TimesNewRomanPS-BoldMT'" font-size="12">i</tspan><tspan x="9.358" y="0" fill="#FFFFFF" font-family="'TimesNewRomanPS-BoldMT'" font-size="12">s</tspan><tspan x="14.028" y="0" fill="#FFFFFF" font-family="'TimesNewRomanPS-BoldMT'" font-size="12">u</tspan><tspan x="20.738" y="0" fill="#FFFFFF" font-family="'TimesNewRomanPS-BoldMT'" font-size="12">a</tspan><tspan x="26.738" y="0" fill="#FFFFFF" font-family="'TimesNewRomanPS-BoldMT'" font-size="12">l</tspan><tspan x="30.096" y="0" fill="#FFFFFF" font-family="'TimesNewRomanPS-BoldMT'" font-size="12"> </tspan><tspan x="32.976" y="0" fill="#FFFFFF" font-family="'TimesNewRomanPS-BoldMT'" font-size="12">f</tspan><tspan x="37.044" y="0" fill="#FFFFFF" font-family="'TimesNewRomanPS-BoldMT'" font-size="12">e</tspan><tspan x="42.334" y="0" fill="#FFFFFF" font-family="'TimesNewRomanPS-BoldMT'" font-size="12">a</tspan><tspan x="48.334" y="0" fill="#FFFFFF" font-family="'TimesNewRomanPS-BoldMT'" font-size="12">t</tspan><tspan x="52.294" y="0" fill="#FFFFFF" font-family="'TimesNewRomanPS-BoldMT'" font-size="12">u</tspan><tspan x="59.004" y="0" fill="#FFFFFF" font-family="'TimesNewRomanPS-BoldMT'" font-size="12">r</tspan><tspan x="64.054" y="0" fill="#FFFFFF" font-family="'TimesNewRomanPS-BoldMT'" font-size="12">e</tspan></text>
	<text transform="matrix(1 0 0 1 9.0488 119.4199)"><tspan x="0" y="0" fill="#FFFFFF" font-family="'TimesNewRomanPS-BoldMT'" font-size="12">(</tspan><tspan x="3.96" y="0" fill="#FFFFFF" font-family="'TimesNewRomanPS-BoldMT'" font-size="12">c</tspan></text>
	<text transform="matrix(1 0 0 1 18.2832 119.4199)" fill="#FFFFFF" font-family="'TimesNewRomanPS-BoldMT'" font-size="12">-</text>
	<text transform="matrix(1 0 0 1 22.252 119.4199)"><tspan x="0" y="0" fill="#FFFFFF" font-family="'TimesNewRomanPS-BoldMT'" font-size="12">c</tspan><tspan x="5.29" y="0" fill="#FFFFFF" font-family="'TimesNewRomanPS-BoldMT'" font-size="12">h</tspan><tspan x="12" y="0" fill="#FFFFFF" font-family="'TimesNewRomanPS-BoldMT'" font-size="12">a</tspan><tspan x="18" y="0" fill="#FFFFFF" font-family="'TimesNewRomanPS-BoldMT'" font-size="12">nn</tspan><tspan x="31.419" y="0" fill="#FFFFFF" font-family="'TimesNewRomanPS-BoldMT'" font-size="12">e</tspan><tspan x="36.71" y="0" fill="#FFFFFF" font-family="'TimesNewRomanPS-BoldMT'" font-size="12">l</tspan><tspan x="40.068" y="0" fill="#FFFFFF" font-family="'TimesNewRomanPS-BoldMT'" font-size="12"> </tspan><tspan x="43.176" y="0" fill="#FFFFFF" font-family="'TimesNewRomanPS-BoldMT'" font-size="12">p</tspan><tspan x="49.886" y="0" fill="#FFFFFF" font-family="'TimesNewRomanPS-BoldMT'" font-size="12">a</tspan><tspan x="55.886" y="0" fill="#FFFFFF" font-family="'TimesNewRomanPS-BoldMT'" font-size="12">tc</tspan><tspan x="65.136" y="0" fill="#FFFFFF" font-family="'TimesNewRomanPS-BoldMT'" font-size="12">h</tspan></text>
	<text transform="matrix(1 0 0 1 94.1191 119.4043)" fill="#FFFFFF" font-family="'TimesNewRomanPS-BoldMT'" font-size="14.04">)</text>
	<path fill="#FFFFFF" d="M199.604,91.197h5.165v0.356l-2.992,7.019h-1.105v-0.372l2.706-5.482v-0.081h-2.399
		c-0.172,0-0.313,0.016-0.42,0.048c-0.107,0.032-0.197,0.094-0.267,0.186c-0.07,0.092-0.138,0.279-0.202,0.563h-0.625
		L199.604,91.197L199.604,91.197z"/>
	<polygon fill="#FFFFFF" points="209.393,92.447 211.834,94.884 214.276,92.447 214.783,92.949 212.368,95.407 214.789,97.854 
		214.25,98.394 211.834,95.93 209.344,98.372 208.843,97.865 211.306,95.407 208.854,92.986 209.393,92.447 	"/>
	<path fill="#FFFFFF" d="M219.044,91.197h5.165v0.356l-2.992,7.019h-1.105v-0.372l2.706-5.482v-0.081h-2.398
		c-0.173,0-0.313,0.016-0.421,0.048c-0.107,0.032-0.196,0.094-0.267,0.186s-0.138,0.279-0.202,0.563h-0.625L219.044,91.197
		L219.044,91.197z"/>
	<polygon fill="#FFFFFF" points="228.712,92.447 231.154,94.884 233.597,92.447 234.103,92.949 231.688,95.407 234.108,97.854 
		233.569,98.394 231.154,95.93 228.664,98.372 228.163,97.865 230.626,95.407 228.173,92.986 228.712,92.447 	"/>
	<path fill="#FFFFFF" d="M254.017,95.035c-0.37,0-0.648,0.125-0.836,0.375c-0.186,0.25-0.279,0.61-0.279,1.081
		c0,0.514,0.094,0.9,0.283,1.159c0.188,0.259,0.469,0.388,0.844,0.388c0.362,0,0.637-0.127,0.824-0.383
		c0.187-0.255,0.28-0.613,0.28-1.073c0-0.481-0.101-0.86-0.302-1.135S254.358,95.035,254.017,95.035L254.017,95.035z
		 M254.044,91.714c-0.355,0-0.625,0.108-0.807,0.323c-0.181,0.216-0.271,0.534-0.271,0.954c0,0.471,0.092,0.831,0.277,1.081
		c0.186,0.25,0.455,0.375,0.812,0.375c0.349,0,0.61-0.118,0.784-0.353s0.262-0.57,0.262-1.005c0-0.445-0.091-0.786-0.272-1.021
		S254.386,91.714,254.044,91.714L254.044,91.714z M254.071,91.11c0.873,0,1.532,0.16,1.979,0.48c0.445,0.32,0.668,0.772,0.668,1.358
		c0,0.388-0.102,0.728-0.305,1.019s-0.51,0.524-0.919,0.701l0.011,0.07c0.416,0.162,0.732,0.396,0.945,0.701
		c0.215,0.305,0.321,0.67,0.321,1.094c0,0.424-0.113,0.795-0.34,1.113c-0.226,0.318-0.552,0.564-0.978,0.739
		s-0.926,0.261-1.496,0.261c-0.543,0-1.017-0.08-1.421-0.24c-0.404-0.16-0.718-0.394-0.94-0.701s-0.334-0.669-0.334-1.086
		c0-0.406,0.104-0.758,0.313-1.056c0.208-0.298,0.533-0.545,0.976-0.739l-0.011-0.07c-0.795-0.345-1.191-0.918-1.191-1.72
		c0-0.367,0.113-0.696,0.342-0.989s0.553-0.522,0.974-0.688C253.085,91.193,253.554,91.11,254.071,91.11L254.071,91.11z
		 M247.39,91.11c0.528,0,0.96,0.071,1.294,0.213c0.335,0.142,0.576,0.334,0.726,0.577c0.148,0.243,0.223,0.525,0.223,0.849
		c0,0.284-0.053,0.548-0.158,0.792c-0.106,0.244-0.289,0.522-0.551,0.835c-0.26,0.313-0.699,0.76-1.317,1.342
		c-0.19,0.18-0.417,0.416-0.682,0.708c-0.265,0.293-0.474,0.544-0.628,0.752v0.054h1.914c0.232,0,0.407-0.017,0.522-0.051
		c0.114-0.034,0.206-0.093,0.272-0.178s0.121-0.211,0.164-0.38h0.619l-0.123,1.93h-4.938v-0.356
		c0.276-0.636,0.842-1.456,1.697-2.458c0.389-0.457,0.684-0.832,0.887-1.127c0.203-0.294,0.355-0.573,0.455-0.835
		c0.102-0.262,0.151-0.534,0.151-0.814c0-0.395-0.088-0.705-0.264-0.93c-0.177-0.225-0.417-0.337-0.723-0.337
		c-0.586,0-0.962,0.422-1.126,1.267h-0.971v-1.272c0.586-0.237,1.059-0.394,1.418-0.469C246.612,91.148,246.991,91.11,247.39,91.11
		L247.39,91.11z M241.21,91.11h0.69c-0.021,0.345-0.032,0.823-0.032,1.434v4.507c0,0.208,0.012,0.365,0.035,0.472
		c0.023,0.106,0.064,0.192,0.123,0.258c0.061,0.067,0.146,0.119,0.257,0.157c0.111,0.038,0.251,0.066,0.421,0.086
		c0.168,0.02,0.391,0.033,0.668,0.041v0.491h-4.652v-0.491c0.399-0.018,0.684-0.042,0.854-0.073
		c0.171-0.031,0.301-0.076,0.391-0.137c0.09-0.062,0.155-0.147,0.197-0.259c0.041-0.112,0.062-0.293,0.062-0.544v-3.897
		c0-0.147-0.028-0.253-0.084-0.318c-0.056-0.064-0.132-0.097-0.229-0.097c-0.09,0-0.216,0.041-0.38,0.124
		c-0.164,0.083-0.432,0.252-0.806,0.507l-0.329-0.571L241.21,91.11L241.21,91.11z"/>
	<text transform="matrix(1 0 0 1 259.8379 98.5449)" fill="#FFFFFF" font-family="'TimesNewRomanPS-BoldMT'" font-size="12">-</text>
	<text transform="matrix(1 0 0 1 263.791 98.5449)"><tspan x="0" y="0" fill="#FFFFFF" font-family="'TimesNewRomanPS-BoldMT'" font-size="12">d</tspan><tspan x="6.71" y="0" fill="#FFFFFF" font-family="'TimesNewRomanPS-BoldMT'" font-size="12">i</tspan><tspan x="10.068" y="0" fill="#FFFFFF" font-family="'TimesNewRomanPS-BoldMT'" font-size="12">m</tspan><tspan x="19.908" y="0" fill="#FFFFFF" font-family="'TimesNewRomanPS-BoldMT'" font-size="12">. </tspan></text>
	<text transform="matrix(1 0 0 1 224.5566 112.9512)"><tspan x="0" y="0" fill="#FFFFFF" font-family="'TimesNewRomanPS-BoldMT'" font-size="12">f</tspan><tspan x="4.068" y="0" fill="#FFFFFF" font-family="'TimesNewRomanPS-BoldMT'" font-size="12">e</tspan><tspan x="9.358" y="0" fill="#FFFFFF" font-family="'TimesNewRomanPS-BoldMT'" font-size="12">a</tspan><tspan x="15.358" y="0" fill="#FFFFFF" font-family="'TimesNewRomanPS-BoldMT'" font-size="12">t</tspan><tspan x="19.318" y="0" fill="#FFFFFF" font-family="'TimesNewRomanPS-BoldMT'" font-size="12">u</tspan><tspan x="26.028" y="0" fill="#FFFFFF" font-family="'TimesNewRomanPS-BoldMT'" font-size="12">r</tspan><tspan x="31.078" y="0" fill="#FFFFFF" font-family="'TimesNewRomanPS-BoldMT'" font-size="12">e</tspan></text>
	<path fill="#FFFFFF" d="M356.789,92.874l-1.843,2.776v0.092h1.843v-1.234c0-0.518,0.019-1.062,0.054-1.633H356.789z
		 M357.172,91.159h1.213v4.582h0.167c0.176,0,0.301-0.012,0.372-0.035s0.134-0.067,0.187-0.132c0.052-0.065,0.102-0.18,0.148-0.345
		h0.565l-0.065,1.191h-1.374v0.803c0,0.27,0.017,0.459,0.048,0.569c0.033,0.109,0.082,0.191,0.148,0.245
		c0.066,0.054,0.195,0.108,0.386,0.162v0.356h-2.755v-0.356c0.191-0.05,0.321-0.107,0.391-0.17c0.07-0.063,0.119-0.146,0.146-0.25
		s0.04-0.29,0.04-0.555V96.42h-2.89v-0.582L357.172,91.159L357.172,91.159z"/>
	<polygon fill="#FFFFFF" points="364.228,92.447 366.669,94.884 369.111,92.447 369.618,92.949 367.203,95.407 369.624,97.854 
		369.085,98.394 366.669,95.93 364.179,98.372 363.677,97.865 366.142,95.407 363.688,92.986 364.228,92.447 	"/>
	<path fill="#FFFFFF" d="M376.229,92.874l-1.844,2.776v0.092h1.844v-1.234c0-0.518,0.018-1.062,0.054-1.633H376.229z
		 M376.612,91.159h1.213v4.582h0.166c0.177,0,0.301-0.012,0.373-0.035c0.071-0.023,0.133-0.067,0.186-0.132
		c0.053-0.065,0.102-0.18,0.148-0.345h0.566l-0.065,1.191h-1.374v0.803c0,0.27,0.016,0.459,0.049,0.569
		c0.031,0.109,0.081,0.191,0.147,0.245c0.066,0.054,0.194,0.108,0.386,0.162v0.356h-2.755v-0.356c0.19-0.05,0.321-0.107,0.391-0.17
		c0.07-0.063,0.118-0.146,0.146-0.25s0.041-0.29,0.041-0.555V96.42h-2.89v-0.582L376.612,91.159L376.612,91.159z"/>
	<polygon fill="#FFFFFF" points="383.548,92.447 385.989,94.884 388.431,92.447 388.938,92.949 386.522,95.407 388.943,97.854 
		388.404,98.394 385.989,95.93 383.499,98.372 382.997,97.865 385.461,95.407 383.009,92.986 383.548,92.447 	"/>
	<path fill="#FFFFFF" d="M408.852,95.035c-0.37,0-0.648,0.125-0.835,0.375c-0.188,0.25-0.281,0.61-0.281,1.081
		c0,0.514,0.095,0.9,0.283,1.159c0.189,0.259,0.471,0.388,0.844,0.388c0.363,0,0.639-0.127,0.824-0.383
		c0.188-0.255,0.281-0.613,0.281-1.073c0-0.481-0.102-0.86-0.303-1.135S409.192,95.035,408.852,95.035L408.852,95.035z
		 M408.878,91.714c-0.355,0-0.624,0.108-0.805,0.323c-0.182,0.216-0.273,0.534-0.273,0.954c0,0.471,0.094,0.831,0.278,1.081
		c0.185,0.25,0.456,0.375,0.812,0.375c0.348,0,0.609-0.118,0.784-0.353s0.261-0.57,0.261-1.005c0-0.445-0.09-0.786-0.271-1.021
		S409.22,91.714,408.878,91.714L408.878,91.714z M408.905,91.11c0.873,0,1.533,0.16,1.979,0.48s0.668,0.772,0.668,1.358
		c0,0.388-0.102,0.728-0.305,1.019c-0.202,0.291-0.509,0.524-0.918,0.701l0.01,0.07c0.418,0.162,0.732,0.396,0.947,0.701
		c0.213,0.305,0.32,0.67,0.32,1.094c0,0.424-0.113,0.795-0.34,1.113c-0.227,0.318-0.553,0.564-0.979,0.739s-0.924,0.261-1.496,0.261
		c-0.543,0-1.016-0.08-1.42-0.24c-0.404-0.16-0.719-0.394-0.941-0.701s-0.334-0.669-0.334-1.086c0-0.406,0.104-0.758,0.313-1.056
		c0.209-0.298,0.534-0.545,0.977-0.739l-0.012-0.07c-0.793-0.345-1.191-0.918-1.191-1.72c0-0.367,0.115-0.696,0.343-0.989
		c0.229-0.293,0.553-0.522,0.974-0.688C407.919,91.193,408.388,91.11,408.905,91.11L408.905,91.11z M402.225,91.11
		c0.528,0,0.96,0.071,1.294,0.213c0.334,0.142,0.576,0.334,0.725,0.577c0.149,0.243,0.225,0.525,0.225,0.849
		c0,0.284-0.054,0.548-0.16,0.792c-0.105,0.244-0.289,0.522-0.549,0.835c-0.262,0.313-0.7,0.76-1.318,1.342
		c-0.19,0.18-0.418,0.416-0.682,0.708c-0.265,0.293-0.475,0.544-0.629,0.752v0.054h1.914c0.234,0,0.408-0.017,0.523-0.051
		s0.205-0.093,0.271-0.178s0.121-0.211,0.164-0.38h0.621l-0.125,1.93h-4.938v-0.356c0.277-0.636,0.843-1.456,1.698-2.458
		c0.388-0.457,0.684-0.832,0.887-1.127c0.203-0.294,0.354-0.573,0.456-0.835c0.1-0.262,0.15-0.534,0.15-0.814
		c0-0.395-0.088-0.705-0.264-0.93c-0.177-0.225-0.418-0.337-0.723-0.337c-0.586,0-0.961,0.422-1.127,1.267h-0.971v-1.272
		c0.586-0.237,1.059-0.394,1.418-0.469C401.446,91.148,401.825,91.11,402.225,91.11L402.225,91.11z M396.045,91.11h0.69
		c-0.021,0.345-0.033,0.823-0.033,1.434v4.507c0,0.208,0.012,0.365,0.035,0.472c0.023,0.106,0.065,0.192,0.125,0.258
		c0.059,0.067,0.145,0.119,0.256,0.157c0.111,0.038,0.252,0.066,0.42,0.086c0.169,0.02,0.393,0.033,0.668,0.041v0.491h-4.651v-0.491
		c0.399-0.018,0.684-0.042,0.854-0.073c0.17-0.031,0.301-0.076,0.391-0.137c0.09-0.062,0.155-0.147,0.197-0.259
		c0.041-0.112,0.062-0.293,0.062-0.544v-3.897c0-0.147-0.028-0.253-0.083-0.318c-0.057-0.064-0.133-0.097-0.229-0.097
		c-0.09,0-0.217,0.041-0.38,0.124c-0.164,0.083-0.433,0.252-0.807,0.507l-0.328-0.571L396.045,91.11L396.045,91.11z"/>
	<text transform="matrix(1 0 0 1 415.2676 98.5449)" fill="#FFFFFF" font-family="'TimesNewRomanPS-BoldMT'" font-size="12">-</text>
	<text transform="matrix(1 0 0 1 419.2363 98.5449)"><tspan x="0" y="0" fill="#FFFFFF" font-family="'TimesNewRomanPS-BoldMT'" font-size="12">d</tspan><tspan x="6.71" y="0" fill="#FFFFFF" font-family="'TimesNewRomanPS-BoldMT'" font-size="12">i</tspan><tspan x="10.068" y="0" fill="#FFFFFF" font-family="'TimesNewRomanPS-BoldMT'" font-size="12">m</tspan><tspan x="19.908" y="0" fill="#FFFFFF" font-family="'TimesNewRomanPS-BoldMT'" font-size="12">. </tspan></text>
	<text transform="matrix(1 0 0 1 379.752 112.9512)"><tspan x="0" y="0" fill="#FFFFFF" font-family="'TimesNewRomanPS-BoldMT'" font-size="12">f</tspan><tspan x="4.068" y="0" fill="#FFFFFF" font-family="'TimesNewRomanPS-BoldMT'" font-size="12">e</tspan><tspan x="9.358" y="0" fill="#FFFFFF" font-family="'TimesNewRomanPS-BoldMT'" font-size="12">a</tspan><tspan x="15.358" y="0" fill="#FFFFFF" font-family="'TimesNewRomanPS-BoldMT'" font-size="12">t</tspan><tspan x="19.318" y="0" fill="#FFFFFF" font-family="'TimesNewRomanPS-BoldMT'" font-size="12">u</tspan><tspan x="26.028" y="0" fill="#FFFFFF" font-family="'TimesNewRomanPS-BoldMT'" font-size="12">r</tspan><tspan x="31.078" y="0" fill="#FFFFFF" font-family="'TimesNewRomanPS-BoldMT'" font-size="12">e</tspan></text>
	<path fill="#FFFFFF" d="M516.596,90.036c0.528,0,0.959,0.071,1.293,0.213c0.335,0.142,0.576,0.334,0.726,0.577
		s0.224,0.525,0.224,0.849c0,0.284-0.053,0.548-0.159,0.792c-0.105,0.245-0.289,0.523-0.55,0.836c-0.261,0.313-0.7,0.76-1.318,1.342
		c-0.19,0.18-0.417,0.416-0.682,0.708c-0.264,0.293-0.474,0.544-0.628,0.752v0.054h1.914c0.233,0,0.407-0.017,0.522-0.051
		s0.206-0.093,0.272-0.178s0.121-0.211,0.164-0.38h0.62l-0.124,1.93h-4.938v-0.356c0.276-0.636,0.843-1.456,1.698-2.458
		c0.388-0.457,0.684-0.832,0.887-1.126c0.203-0.295,0.354-0.573,0.455-0.836c0.101-0.262,0.151-0.534,0.151-0.814
		c0-0.395-0.089-0.705-0.265-0.93s-0.417-0.337-0.723-0.337c-0.585,0-0.961,0.422-1.126,1.267h-0.971v-1.272
		c0.586-0.237,1.059-0.394,1.418-0.469C515.817,90.074,516.196,90.036,516.596,90.036L516.596,90.036z"/>
	<polygon fill="#FFFFFF" points="523.958,91.373 526.4,93.81 528.842,91.373 529.349,91.874 526.934,94.332 529.354,96.779 
		528.815,97.318 526.4,94.855 523.909,97.297 523.408,96.791 525.872,94.332 523.419,91.912 523.958,91.373 	"/>
	<path fill="#FFFFFF" d="M536.035,90.036c0.528,0,0.96,0.071,1.294,0.213c0.334,0.142,0.576,0.334,0.725,0.577
		c0.149,0.243,0.225,0.525,0.225,0.849c0,0.284-0.054,0.548-0.159,0.792c-0.106,0.245-0.29,0.523-0.55,0.836
		c-0.261,0.313-0.7,0.76-1.318,1.342c-0.19,0.18-0.418,0.416-0.682,0.708c-0.265,0.293-0.474,0.544-0.628,0.752v0.054h1.913
		c0.233,0,0.408-0.017,0.523-0.051c0.114-0.034,0.205-0.093,0.271-0.178c0.067-0.084,0.122-0.211,0.165-0.38h0.62l-0.124,1.93
		h-4.938v-0.356c0.277-0.636,0.843-1.456,1.698-2.458c0.389-0.457,0.684-0.832,0.887-1.126c0.203-0.295,0.355-0.573,0.456-0.836
		c0.101-0.262,0.15-0.534,0.15-0.814c0-0.395-0.088-0.705-0.264-0.93c-0.177-0.225-0.417-0.337-0.723-0.337
		c-0.586,0-0.961,0.422-1.127,1.267h-0.97v-1.272c0.586-0.237,1.058-0.394,1.417-0.469
		C535.257,90.074,535.637,90.036,536.035,90.036L536.035,90.036z"/>
	<polygon fill="#FFFFFF" points="543.278,91.373 545.72,93.81 548.162,91.373 548.669,91.874 546.254,94.332 548.674,96.779 
		548.135,97.318 545.72,94.855 543.229,97.297 542.729,96.791 545.191,94.332 542.739,91.912 543.278,91.373 	"/>
	<path fill="#FFFFFF" d="M568.749,93.691c-0.176,0-0.341,0.026-0.495,0.078c-0.155,0.052-0.292,0.122-0.41,0.21
		c-0.118,0.088-0.198,0.16-0.24,0.216c-0.041,0.056-0.07,0.136-0.089,0.24c-0.018,0.104-0.026,0.288-0.026,0.55
		c0,0.658,0.092,1.152,0.274,1.482c0.184,0.331,0.464,0.496,0.841,0.496c0.385,0,0.673-0.139,0.863-0.418
		c0.19-0.278,0.285-0.709,0.285-1.291c0-0.514-0.085-0.903-0.256-1.167S569.076,93.691,568.749,93.691L568.749,93.691z
		 M570.151,90.036l0.291,0.372v0.334c-0.787,0.018-1.425,0.261-1.914,0.73c-0.488,0.469-0.813,1.14-0.976,2.013l0.054,0.021
		c0.28-0.194,0.563-0.336,0.847-0.426s0.595-0.135,0.933-0.135c0.413,0,0.768,0.091,1.064,0.272
		c0.297,0.181,0.521,0.438,0.671,0.768c0.151,0.331,0.227,0.715,0.227,1.153c0,0.478-0.101,0.899-0.302,1.264
		s-0.512,0.65-0.93,0.854c-0.419,0.205-0.932,0.307-1.539,0.307c-0.558,0-1.036-0.111-1.437-0.334
		c-0.401-0.223-0.707-0.552-0.919-0.986c-0.213-0.435-0.318-0.963-0.318-1.585c0-0.841,0.177-1.601,0.531-2.28
		c0.354-0.679,0.855-1.226,1.506-1.639C568.591,90.329,569.328,90.093,570.151,90.036L570.151,90.036z M555.355,90.036
		c0.528,0,0.959,0.071,1.294,0.213c0.334,0.142,0.575,0.334,0.725,0.577s0.224,0.525,0.224,0.849c0,0.284-0.053,0.548-0.159,0.792
		c-0.105,0.245-0.289,0.523-0.55,0.836c-0.26,0.313-0.699,0.76-1.317,1.342c-0.19,0.18-0.418,0.416-0.683,0.708
		c-0.264,0.293-0.473,0.544-0.628,0.752v0.054h1.914c0.233,0,0.408-0.017,0.522-0.051c0.115-0.034,0.206-0.093,0.272-0.178
		s0.121-0.211,0.164-0.38h0.62l-0.124,1.93h-4.938v-0.356c0.276-0.636,0.843-1.456,1.698-2.458c0.388-0.457,0.684-0.832,0.887-1.126
		c0.203-0.295,0.354-0.573,0.455-0.836c0.101-0.262,0.151-0.534,0.151-0.814c0-0.395-0.088-0.705-0.265-0.93
		c-0.176-0.225-0.417-0.337-0.722-0.337c-0.586,0-0.962,0.422-1.127,1.267H552.8v-1.272c0.586-0.237,1.059-0.394,1.418-0.469
		C554.577,90.074,554.956,90.036,555.355,90.036L555.355,90.036z M563.632,89.767h0.593l-0.107,1.719h-3.31v1.941
		c0.215-0.065,0.436-0.112,0.66-0.143s0.5-0.046,0.827-0.046c0.445,0,0.837,0.083,1.173,0.248s0.597,0.405,0.781,0.72
		c0.186,0.314,0.277,0.684,0.277,1.108c0,0.729-0.241,1.287-0.725,1.674c-0.483,0.386-1.178,0.579-2.084,0.579
		c-0.377,0-0.762-0.038-1.153-0.113c-0.392-0.075-0.728-0.178-1.008-0.307v-1.348h0.976c0.09,0.392,0.233,0.684,0.432,0.876
		c0.197,0.192,0.452,0.289,0.765,0.289c0.393,0,0.682-0.121,0.868-0.364c0.188-0.243,0.28-0.617,0.28-1.124
		c0-0.5-0.12-0.88-0.361-1.143c-0.24-0.262-0.589-0.394-1.046-0.394c-0.176,0-0.365,0.017-0.568,0.049s-0.384,0.072-0.542,0.119
		l-0.484-0.302v-3.682h3.186c0.19,0,0.319-0.023,0.386-0.07C563.513,90.005,563.574,89.91,563.632,89.767L563.632,89.767z"/>
	<text transform="matrix(1 0 0 1 574.4004 97.4746)" fill="#FFFFFF" font-family="'TimesNewRomanPS-BoldMT'" font-size="12">-</text>
	<text transform="matrix(1 0 0 1 578.3613 97.4746)"><tspan x="0" y="0" fill="#FFFFFF" font-family="'TimesNewRomanPS-BoldMT'" font-size="12">d</tspan><tspan x="6.71" y="0" fill="#FFFFFF" font-family="'TimesNewRomanPS-BoldMT'" font-size="12">i</tspan><tspan x="10.067" y="0" fill="#FFFFFF" font-family="'TimesNewRomanPS-BoldMT'" font-size="12">m</tspan><tspan x="19.908" y="0" fill="#FFFFFF" font-family="'TimesNewRomanPS-BoldMT'" font-size="12">. </tspan></text>
	<text transform="matrix(1 0 0 1 539.127 111.8809)"><tspan x="0" y="0" fill="#FFFFFF" font-family="'TimesNewRomanPS-BoldMT'" font-size="12">f</tspan><tspan x="4.068" y="0" fill="#FFFFFF" font-family="'TimesNewRomanPS-BoldMT'" font-size="12">e</tspan><tspan x="9.358" y="0" fill="#FFFFFF" font-family="'TimesNewRomanPS-BoldMT'" font-size="12">a</tspan><tspan x="15.358" y="0" fill="#FFFFFF" font-family="'TimesNewRomanPS-BoldMT'" font-size="12">t</tspan><tspan x="19.318" y="0" fill="#FFFFFF" font-family="'TimesNewRomanPS-BoldMT'" font-size="12">u</tspan><tspan x="26.028" y="0" fill="#FFFFFF" font-family="'TimesNewRomanPS-BoldMT'" font-size="12">r</tspan><tspan x="31.078" y="0" fill="#FFFFFF" font-family="'TimesNewRomanPS-BoldMT'" font-size="12">e</tspan></text>
	<text transform="matrix(1 0 0 1 610.9238 165.873)"><tspan x="0" y="0" fill="#040000" font-family="'TimesNewRomanPSMT'" font-size="14.04">25</tspan><tspan x="14.151" y="0" fill="#040000" font-family="'TimesNewRomanPSMT'" font-size="14.04">6</tspan></text>
	<text transform="matrix(1 0 0 1 632.166 165.873)" fill="#040000" font-family="'TimesNewRomanPSMT'" font-size="14.04">-</text>
	<text transform="matrix(1 0 0 1 636.8379 165.873)"><tspan x="0" y="0" fill="#040000" font-family="'TimesNewRomanPSMT'" font-size="14.04">d</tspan><tspan x="7.076" y="0" fill="#040000" font-family="'TimesNewRomanPSMT'" font-size="14.04">i</tspan><tspan x="10.92" y="0" fill="#040000" font-family="'TimesNewRomanPSMT'" font-size="14.04">m</tspan><tspan x="21.603" y="0" fill="#040000" font-family="'TimesNewRomanPSMT'" font-size="14.04">.</tspan><tspan x="25.084" y="0" fill="#040000" font-family="'TimesNewRomanPSMT'" font-size="14.04"> </tspan></text>
	<text transform="matrix(1 0 0 1 665.2754 165.873)"><tspan x="0" y="0" fill="#040000" font-family="'TimesNewRomanPSMT'" font-size="14.04">fea</tspan><tspan x="17.139" y="0" fill="#040000" font-family="'TimesNewRomanPSMT'" font-size="14.04">tu</tspan><tspan x="28.171" y="0" fill="#040000" font-family="'TimesNewRomanPSMT'" font-size="14.04">re</tspan></text>
	<path fill="#040000" d="M605.563,122.431c0.668,0,1.173,0.146,1.515,0.439s0.512,0.718,0.512,1.275c0,0.19-0.019,0.366-0.057,0.526
		c-0.037,0.16-0.097,0.318-0.178,0.474s-0.189,0.324-0.326,0.504s-0.287,0.362-0.452,0.547c-0.166,0.185-0.451,0.493-0.857,0.924
		c-0.683,0.723-1.185,1.353-1.504,1.892h2.032c0.176,0,0.318-0.011,0.426-0.032s0.194-0.058,0.259-0.108s0.116-0.116,0.153-0.197
		c0.038-0.081,0.086-0.206,0.143-0.375h0.459l-0.092,1.574h-4.437v-0.259c0.154-0.377,0.363-0.764,0.625-1.159
		c0.263-0.395,0.635-0.861,1.116-1.396c0.417-0.46,0.717-0.809,0.9-1.046c0.201-0.259,0.351-0.482,0.45-0.671
		c0.099-0.189,0.169-0.367,0.213-0.534c0.043-0.167,0.064-0.335,0.064-0.504c0-0.27-0.043-0.507-0.13-0.714
		c-0.086-0.207-0.218-0.37-0.396-0.488c-0.179-0.118-0.402-0.178-0.672-0.178c-0.672,0-1.124,0.374-1.358,1.121h-0.652v-1.035
		c0.436-0.205,0.842-0.353,1.222-0.445C604.92,122.477,605.261,122.431,605.563,122.431L605.563,122.431z"/>
	<polygon fill="#040000" points="612.503,123.768 614.944,126.204 617.387,123.768 617.894,124.269 615.479,126.727 
		617.898,129.174 617.359,129.713 614.944,127.25 612.454,129.692 611.953,129.186 614.417,126.727 611.964,124.307 
		612.503,123.768 	"/>
	<path fill="#040000" d="M624.402,122.431c0.668,0,1.173,0.146,1.515,0.439s0.512,0.718,0.512,1.275c0,0.19-0.019,0.366-0.057,0.526
		c-0.037,0.16-0.097,0.318-0.178,0.474c-0.08,0.156-0.189,0.324-0.326,0.504c-0.136,0.18-0.287,0.362-0.452,0.547
		c-0.166,0.185-0.451,0.493-0.857,0.924c-0.683,0.723-1.185,1.353-1.504,1.892h2.032c0.176,0,0.318-0.011,0.426-0.032
		s0.194-0.058,0.259-0.108s0.116-0.116,0.153-0.197c0.038-0.081,0.086-0.206,0.144-0.375h0.458l-0.092,1.574h-4.437v-0.259
		c0.154-0.377,0.363-0.764,0.625-1.159c0.263-0.395,0.635-0.861,1.116-1.396c0.417-0.46,0.717-0.809,0.9-1.046
		c0.201-0.259,0.352-0.482,0.45-0.671c0.099-0.189,0.17-0.367,0.213-0.534c0.043-0.167,0.064-0.335,0.064-0.504
		c0-0.27-0.043-0.507-0.129-0.714c-0.087-0.207-0.219-0.37-0.396-0.488c-0.178-0.118-0.401-0.178-0.671-0.178
		c-0.673,0-1.125,0.374-1.358,1.121h-0.652v-1.035c0.435-0.205,0.842-0.353,1.221-0.445S624.101,122.431,624.402,122.431
		L624.402,122.431z"/>
	<text transform="matrix(1 0 0 1 578.2207 145.9434)" fill="#040000" font-family="'TimesNewRomanPSMT'" font-size="14.04">Max</text>
	<text transform="matrix(1 0 0 1 604.0176 145.9434)" fill="#040000" font-family="'TimesNewRomanPSMT'" font-size="14.04">-</text>
	<text transform="matrix(1 0 0 1 608.6973 145.9434)"><tspan x="0" y="0" fill="#040000" font-family="'TimesNewRomanPSMT'" font-size="14.04">poo</tspan><tspan x="21.228" y="0" fill="#040000" font-family="'TimesNewRomanPSMT'" font-size="14.04">l</tspan><tspan x="25.071" y="0" fill="#040000" font-family="'TimesNewRomanPSMT'" font-size="14.04">i</tspan><tspan x="29.028" y="0" fill="#040000" font-family="'TimesNewRomanPSMT'" font-size="14.04">n</tspan><tspan x="35.991" y="0" fill="#040000" font-family="'TimesNewRomanPSMT'" font-size="14.04">g</tspan></text>
	<polygon fill-rule="evenodd" clip-rule="evenodd" fill="#5487C6" points="455.22,210.853 464.066,210.853 464.066,248.02 
		455.22,248.02 455.22,210.853 	"/>
	<polygon fill-rule="evenodd" clip-rule="evenodd" fill="#436DA2" points="464.066,210.853 469.859,205.06 469.859,242.227 
		464.066,248.02 464.066,210.853 	"/>
	<polygon fill-rule="evenodd" clip-rule="evenodd" fill="#739DD2" points="455.22,210.853 461.013,205.06 469.859,205.06 
		464.066,210.853 455.22,210.853 	"/>
	<path fill="none" stroke="#375B85" stroke-width="2.04" stroke-miterlimit="8" d="M455.22,210.853l5.793-5.793h8.847v37.167
		l-5.793,5.793h-8.847V210.853L455.22,210.853z M455.22,210.853h8.847l5.793-5.793 M464.066,210.853v37.167"/>
	<text transform="matrix(1 0 0 1 395.2598 264.3027)" fill="#040000" font-family="'TimesNewRomanPSMT'" font-size="14.04">2</text>
	<text transform="matrix(1 0 0 1 402.3379 264.3027)" fill="#040000" font-family="'TimesNewRomanPSMT'" font-size="14.04">-</text>
	<text transform="matrix(1 0 0 1 407.0176 264.3027)"><tspan x="0" y="0" fill="#040000" font-family="'TimesNewRomanPSMT'" font-size="14.04">di</tspan><tspan x="11.033" y="0" fill="#040000" font-family="'TimesNewRomanPSMT'" font-size="14.04">m</tspan><tspan x="21.715" y="0" fill="#040000" font-family="'TimesNewRomanPSMT'" font-size="14.04">.</tspan><tspan x="25.197" y="0" fill="#040000" font-family="'TimesNewRomanPSMT'" font-size="14.04"> </tspan></text>
	<text transform="matrix(1 0 0 1 435.5801 264.3027)"><tspan x="0" y="0" fill="#040000" font-family="'TimesNewRomanPSMT'" font-size="14.04">sp</tspan><tspan x="12.596" y="0" fill="#040000" font-family="'TimesNewRomanPSMT'" font-size="14.04">a</tspan><tspan x="18.828" y="0" fill="#040000" font-family="'TimesNewRomanPSMT'" font-size="14.04">ti</tspan><tspan x="26.741" y="0" fill="#040000" font-family="'TimesNewRomanPSMT'" font-size="14.04">a</tspan><tspan x="32.973" y="0" fill="#040000" font-family="'TimesNewRomanPSMT'" font-size="14.04">l</tspan><tspan x="36.93" y="0" fill="#040000" font-family="'TimesNewRomanPSMT'" font-size="14.04"> </tspan><tspan x="40.172" y="0" fill="#040000" font-family="'TimesNewRomanPSMT'" font-size="14.04">fea</tspan><tspan x="57.311" y="0" fill="#040000" font-family="'TimesNewRomanPSMT'" font-size="14.04">tu</tspan><tspan x="68.343" y="0" fill="#040000" font-family="'TimesNewRomanPSMT'" font-size="14.04">re</tspan></text>
	<text transform="matrix(1 0 0 1 396.3301 281.0996)" fill="#040000" font-family="'TimesNewRomanPSMT'" font-size="14.04">(</text>
	<text transform="matrix(1 0 0 1 401.0176 281.0996)" fill="#040000" font-family="'TimesNewRomanPS-ItalicMT'" font-size="14.04">x</text>
	<text transform="matrix(1 0 0 1 410.7363 281.0996)"><tspan x="0" y="0" fill="#040000" font-family="'TimesNewRomanPSMT'" font-size="14.04">a</tspan><tspan x="6.231" y="0" fill="#040000" font-family="'TimesNewRomanPSMT'" font-size="14.04">nd</tspan><tspan x="20.384" y="0" fill="#040000" font-family="'TimesNewRomanPSMT'" font-size="14.04"> </tspan></text>
	<text transform="matrix(1 0 0 1 434.4941 281.0996)" fill="#040000" font-family="'TimesNewRomanPS-ItalicMT'" font-size="14.04">y</text>
	<text transform="matrix(1 0 0 1 444.2129 281.0996)"><tspan x="0" y="0" fill="#040000" font-family="'TimesNewRomanPSMT'" font-size="14.04">c</tspan><tspan x="6.231" y="0" fill="#040000" font-family="'TimesNewRomanPSMT'" font-size="14.04">oo</tspan><tspan x="20.383" y="0" fill="#040000" font-family="'TimesNewRomanPSMT'" font-size="14.04">r</tspan><tspan x="25.059" y="0" fill="#040000" font-family="'TimesNewRomanPSMT'" font-size="14.04">di</tspan><tspan x="36.091" y="0" fill="#040000" font-family="'TimesNewRomanPSMT'" font-size="14.04">n</tspan><tspan x="43.055" y="0" fill="#040000" font-family="'TimesNewRomanPSMT'" font-size="14.04">a</tspan><tspan x="49.286" y="0" fill="#040000" font-family="'TimesNewRomanPSMT'" font-size="14.04">t</tspan><tspan x="53.242" y="0" fill="#040000" font-family="'TimesNewRomanPSMT'" font-size="14.04">e</tspan><tspan x="59.474" y="0" fill="#040000" font-family="'TimesNewRomanPSMT'" font-size="14.04">s</tspan><tspan x="64.882" y="0" fill="#040000" font-family="'TimesNewRomanPSMT'" font-size="14.04">) </tspan></text>
	<polygon fill-rule="evenodd" clip-rule="evenodd" fill="#5487C6" points="567.12,214.479 575.58,214.479 575.58,205.959 
		584.04,222.999 575.58,240.039 575.58,231.52 567.12,231.52 567.12,214.479 	"/>
	<polygon fill-rule="evenodd" clip-rule="evenodd" fill="#5487C6" points="654.899,179.502 664.617,179.502 664.617,273.939 
		654.899,273.939 654.899,179.502 	"/>
	<polygon fill-rule="evenodd" clip-rule="evenodd" fill="#436DA2" points="664.617,179.502 670.979,173.14 670.979,267.576 
		664.617,273.939 664.617,179.502 	"/>
	<polygon fill-rule="evenodd" clip-rule="evenodd" fill="#739DD2" points="654.899,179.502 661.263,173.14 670.979,173.14 
		664.617,179.502 654.899,179.502 	"/>
	<path fill="none" stroke="#375B85" stroke-width="2.04" stroke-miterlimit="8" d="M654.899,179.502l6.363-6.362h9.717v94.437
		l-6.362,6.363h-9.718V179.502L654.899,179.502z M654.899,179.502h9.718l6.362-6.362 M664.617,179.502v94.438"/>
	<path fill="#040000" d="M526.632,250.469c0.668,0,1.174,0.146,1.515,0.439c0.342,0.293,0.513,0.718,0.513,1.274
		c0,0.19-0.02,0.366-0.057,0.526c-0.038,0.159-0.098,0.317-0.179,0.474c-0.08,0.156-0.189,0.325-0.326,0.505
		c-0.136,0.18-0.287,0.361-0.452,0.547c-0.166,0.185-0.451,0.493-0.857,0.924c-0.683,0.723-1.184,1.354-1.504,1.893h2.032
		c0.176,0,0.318-0.011,0.426-0.032c0.108-0.021,0.194-0.058,0.259-0.108c0.064-0.05,0.116-0.115,0.153-0.196
		c0.038-0.081,0.086-0.206,0.144-0.375h0.458l-0.092,1.574h-4.437v-0.259c0.154-0.377,0.363-0.764,0.625-1.159
		c0.263-0.395,0.635-0.86,1.116-1.396c0.417-0.46,0.717-0.809,0.9-1.046c0.201-0.259,0.352-0.482,0.45-0.671
		c0.099-0.189,0.17-0.367,0.213-0.534s0.064-0.335,0.064-0.504c0-0.27-0.043-0.508-0.129-0.714
		c-0.087-0.207-0.219-0.369-0.396-0.488c-0.178-0.118-0.401-0.178-0.671-0.178c-0.673,0-1.125,0.374-1.358,1.121h-0.652v-1.035
		c0.435-0.205,0.842-0.353,1.221-0.444S526.33,250.469,526.632,250.469L526.632,250.469z"/>
	<path fill="#040000" d="M539.077,254.032c-0.177,0-0.347,0.02-0.51,0.06c-0.164,0.039-0.317,0.097-0.461,0.172
		s-0.284,0.171-0.421,0.286c-0.043,0.039-0.075,0.081-0.097,0.124c-0.036,0.068-0.06,0.152-0.07,0.253s-0.016,0.27-0.016,0.507
		c0,0.687,0.114,1.209,0.345,1.568c0.229,0.359,0.578,0.539,1.046,0.539c0.27,0,0.496-0.047,0.679-0.14
		c0.184-0.094,0.332-0.222,0.445-0.386c0.113-0.163,0.194-0.355,0.242-0.577c0.049-0.221,0.073-0.46,0.073-0.719
		c0-0.532-0.11-0.946-0.329-1.243C539.784,254.181,539.476,254.032,539.077,254.032L539.077,254.032z M540.462,250.469l0.221,0.297
		v0.264c-0.553,0-1.044,0.119-1.471,0.355c-0.428,0.237-0.783,0.586-1.065,1.046s-0.48,1.007-0.596,1.639l0.055,0.022
		c0.302-0.216,0.599-0.374,0.892-0.475s0.61-0.151,0.951-0.151c0.406,0,0.752,0.089,1.038,0.267c0.286,0.179,0.5,0.428,0.645,0.75
		c0.144,0.321,0.215,0.698,0.215,1.129c0,0.468-0.09,0.88-0.27,1.237s-0.457,0.639-0.832,0.844
		c-0.376,0.205-0.839,0.308-1.389,0.308c-0.787,0-1.381-0.245-1.781-0.733c-0.4-0.489-0.602-1.21-0.602-2.162
		c0-0.64,0.101-1.237,0.302-1.795c0.202-0.557,0.487-1.043,0.857-1.458s0.8-0.742,1.288-0.981
		C539.409,250.632,539.923,250.498,540.462,250.469L540.462,250.469z M534.261,250.199h0.421l-0.081,1.251h-3.1v2.366
		c0.188-0.079,0.391-0.139,0.609-0.178c0.219-0.04,0.438-0.06,0.657-0.06c0.428,0,0.808,0.087,1.138,0.262
		c0.331,0.174,0.586,0.422,0.766,0.744c0.18,0.321,0.27,0.694,0.27,1.118c0,0.481-0.101,0.895-0.302,1.24
		c-0.201,0.345-0.492,0.607-0.873,0.787s-0.832,0.27-1.354,0.27c-0.622,0-1.272-0.128-1.951-0.383v-1.144h0.652
		c0.107,0.367,0.271,0.637,0.487,0.809c0.218,0.173,0.499,0.259,0.844,0.259c0.479,0,0.84-0.144,1.084-0.431
		c0.244-0.288,0.366-0.717,0.366-1.289c0-0.381-0.064-0.696-0.194-0.945c-0.129-0.25-0.304-0.431-0.522-0.542
		c-0.22-0.111-0.475-0.167-0.766-0.167c-0.244,0-0.454,0.015-0.631,0.046c-0.176,0.03-0.364,0.078-0.565,0.143l-0.432-0.253v-3.548
		h2.971c0.122,0,0.21-0.01,0.264-0.029s0.097-0.051,0.13-0.092C534.181,250.393,534.218,250.314,534.261,250.199L534.261,250.199z"
		/>
	<text transform="matrix(1 0 0 1 545.3691 257.8965)"><tspan x="0" y="0" fill="#040000" font-family="'TimesNewRomanPSMT'" font-size="14.04">F</tspan><tspan x="7.809" y="0" fill="#040000" font-family="'TimesNewRomanPSMT'" font-size="14.04">ull</tspan><tspan x="22.798" y="0" fill="#040000" font-family="'TimesNewRomanPSMT'" font-size="14.04">y</tspan></text>
	<text transform="matrix(1 0 0 1 575.002 257.8965)" fill="#040000" font-family="'TimesNewRomanPSMT'" font-size="14.04">-</text>
	<text transform="matrix(1 0 0 1 579.6895 257.8965)"><tspan x="0" y="0" fill="#040000" font-family="'TimesNewRomanPSMT'" font-size="14.04">c</tspan><tspan x="6.231" y="0" fill="#040000" font-family="'TimesNewRomanPSMT'" font-size="14.04">onn</tspan><tspan x="27.459" y="0" fill="#040000" font-family="'TimesNewRomanPSMT'" font-size="14.04">.</tspan><tspan x="30.94" y="0" fill="#040000" font-family="'TimesNewRomanPSMT'" font-size="14.04"> </tspan></text>
	<text transform="matrix(1 0 0 1 544.291 274.7012)"><tspan x="0" y="0" fill="#040000" font-family="'TimesNewRomanPSMT'" font-size="14.04">+</tspan><tspan x="7.918" y="0" fill="#040000" font-family="'TimesNewRomanPSMT'" font-size="14.04"> </tspan><tspan x="11.399" y="0" fill="#040000" font-family="'TimesNewRomanPSMT'" font-size="14.04">Re</tspan><tspan x="26.995" y="0" fill="#040000" font-family="'TimesNewRomanPSMT'" font-size="14.04">L</tspan><tspan x="35.516" y="0" fill="#040000" font-family="'TimesNewRomanPSMT'" font-size="14.04">U</tspan></text>
	<text transform="matrix(1 0 0 1 613.2988 286.4355)"><tspan x="0" y="0" fill="#040000" font-family="'TimesNewRomanPSMT'" font-size="14.04">25</tspan><tspan x="14.151" y="0" fill="#040000" font-family="'TimesNewRomanPSMT'" font-size="14.04">6</tspan></text>
	<text transform="matrix(1 0 0 1 634.5332 286.4355)" fill="#040000" font-family="'TimesNewRomanPSMT'" font-size="14.04">-</text>
	<text transform="matrix(1 0 0 1 639.2129 286.4355)"><tspan x="0" y="0" fill="#040000" font-family="'TimesNewRomanPSMT'" font-size="14.04">d</tspan><tspan x="7.076" y="0" fill="#040000" font-family="'TimesNewRomanPSMT'" font-size="14.04">i</tspan><tspan x="10.92" y="0" fill="#040000" font-family="'TimesNewRomanPSMT'" font-size="14.04">m</tspan><tspan x="21.603" y="0" fill="#040000" font-family="'TimesNewRomanPSMT'" font-size="14.04">.</tspan><tspan x="25.084" y="0" fill="#040000" font-family="'TimesNewRomanPSMT'" font-size="14.04"> </tspan><tspan x="28.453" y="0" fill="#040000" font-family="'TimesNewRomanPSMT'" font-size="14.04">fea</tspan><tspan x="45.592" y="0" fill="#040000" font-family="'TimesNewRomanPSMT'" font-size="14.04">tu</tspan><tspan x="56.624" y="0" fill="#040000" font-family="'TimesNewRomanPSMT'" font-size="14.04">re</tspan></text>
	<polygon fill-rule="evenodd" clip-rule="evenodd" fill="#D29391" points="761.699,100.958 770.401,100.958 770.401,219.699 
		761.699,219.699 761.699,100.958 	"/>
	<polygon fill-rule="evenodd" clip-rule="evenodd" fill="#AA7775" points="770.401,100.958 776.1,95.26 776.1,214.001 
		770.401,219.699 770.401,100.958 	"/>
	<polygon fill-rule="evenodd" clip-rule="evenodd" fill="#DBA8A6" points="761.699,100.958 767.397,95.26 776.1,95.26 
		770.401,100.958 761.699,100.958 	"/>
	<path fill="none" stroke="#913634" stroke-width="2.04" stroke-miterlimit="8" d="M761.699,100.958l5.698-5.698h8.702v118.741
		l-5.698,5.698h-8.702V100.958L761.699,100.958z M761.699,100.958h8.702l5.698-5.698 M770.401,100.958v118.742"/>
	<polygon fill-rule="evenodd" clip-rule="evenodd" fill="#D29391" points="708.95,87.703 716.451,91.713 720.461,84.212 
		719.941,103.223 704.422,114.214 708.432,106.714 700.931,102.704 708.95,87.703 	"/>
	<polygon fill-rule="evenodd" clip-rule="evenodd" fill="#D29391" points="698.914,212.522 705.418,207.042 699.938,200.538 
		717.402,208.065 721.858,226.554 716.379,220.05 709.875,225.53 698.914,212.522 	"/>
	<text transform="matrix(1 0 0 1 722.0176 235.9121)"><tspan x="0" y="0" fill="#040000" font-family="'TimesNewRomanPSMT'" font-size="14.04">25</tspan><tspan x="14.151" y="0" fill="#040000" font-family="'TimesNewRomanPSMT'" font-size="14.04">6</tspan></text>
	<text transform="matrix(1 0 0 1 743.2598 235.9121)" fill="#040000" font-family="'TimesNewRomanPSMT'" font-size="14.04">-</text>
	<text transform="matrix(1 0 0 1 747.9473 235.9121)"><tspan x="0" y="0" fill="#040000" font-family="'TimesNewRomanPSMT'" font-size="14.04">d</tspan><tspan x="7.076" y="0" fill="#040000" font-family="'TimesNewRomanPSMT'" font-size="14.04">i</tspan><tspan x="10.92" y="0" fill="#040000" font-family="'TimesNewRomanPSMT'" font-size="14.04">m</tspan><tspan x="21.603" y="0" fill="#040000" font-family="'TimesNewRomanPSMT'" font-size="14.04">.</tspan><tspan x="25.084" y="0" fill="#040000" font-family="'TimesNewRomanPSMT'" font-size="14.04"> </tspan><tspan x="28.453" y="0" fill="#040000" font-family="'TimesNewRomanPSMT'" font-size="14.04">fea</tspan><tspan x="45.592" y="0" fill="#040000" font-family="'TimesNewRomanPSMT'" font-size="14.04">tu</tspan><tspan x="56.624" y="0" fill="#040000" font-family="'TimesNewRomanPSMT'" font-size="14.04">re</tspan></text>
	<path fill="#040000" d="M676.569,244.378c0.669,0,1.174,0.146,1.516,0.439c0.341,0.293,0.512,0.718,0.512,1.274
		c0,0.19-0.019,0.366-0.057,0.525c-0.038,0.16-0.097,0.318-0.178,0.475s-0.189,0.324-0.326,0.504s-0.287,0.362-0.453,0.548
		c-0.165,0.185-0.451,0.493-0.856,0.924c-0.684,0.723-1.185,1.354-1.505,1.893h2.033c0.176,0,0.317-0.011,0.426-0.032
		c0.107-0.021,0.193-0.058,0.259-0.108c0.064-0.05,0.115-0.115,0.153-0.196s0.085-0.206,0.143-0.375h0.458l-0.091,1.574h-4.437
		v-0.259c0.154-0.377,0.362-0.764,0.625-1.159s0.634-0.86,1.116-1.396c0.416-0.46,0.717-0.809,0.899-1.045
		c0.202-0.259,0.352-0.482,0.45-0.672c0.1-0.188,0.17-0.366,0.213-0.533s0.065-0.335,0.065-0.504c0-0.27-0.044-0.508-0.13-0.715
		c-0.086-0.206-0.218-0.369-0.396-0.487c-0.178-0.119-0.401-0.178-0.671-0.178c-0.672,0-1.125,0.373-1.358,1.121h-0.652v-1.035
		c0.436-0.205,0.842-0.354,1.221-0.444C675.928,244.424,676.268,244.378,676.569,244.378L676.569,244.378z"/>
	<path fill="#040000" d="M689.015,247.941c-0.176,0-0.346,0.02-0.51,0.059c-0.163,0.04-0.316,0.098-0.461,0.173
		c-0.144,0.075-0.283,0.171-0.42,0.285c-0.043,0.04-0.075,0.081-0.098,0.124c-0.035,0.068-0.059,0.153-0.069,0.254
		s-0.017,0.27-0.017,0.507c0,0.687,0.115,1.209,0.346,1.568c0.229,0.359,0.578,0.539,1.045,0.539c0.27,0,0.496-0.047,0.68-0.14
		c0.184-0.094,0.331-0.223,0.444-0.386c0.113-0.164,0.194-0.355,0.243-0.577c0.048-0.221,0.072-0.461,0.072-0.72
		c0-0.531-0.109-0.945-0.328-1.242C689.723,248.089,689.413,247.941,689.015,247.941L689.015,247.941z M690.4,244.378l0.221,0.296
		v0.265c-0.554,0-1.044,0.118-1.472,0.355s-0.782,0.586-1.064,1.046s-0.48,1.006-0.596,1.639l0.054,0.021
		c0.302-0.216,0.6-0.373,0.893-0.475c0.293-0.101,0.609-0.15,0.951-0.15c0.406,0,0.752,0.089,1.038,0.267
		c0.285,0.178,0.5,0.428,0.644,0.749c0.144,0.322,0.216,0.698,0.216,1.13c0,0.467-0.09,0.88-0.27,1.237s-0.457,0.639-0.833,0.844
		c-0.375,0.204-0.838,0.307-1.388,0.307c-0.787,0-1.381-0.244-1.782-0.732c-0.4-0.489-0.601-1.21-0.601-2.162
		c0-0.64,0.101-1.238,0.302-1.795c0.201-0.558,0.487-1.043,0.857-1.458s0.8-0.742,1.288-0.981S689.861,244.406,690.4,244.378
		L690.4,244.378z M684.199,244.108h0.421l-0.081,1.25h-3.1v2.367c0.187-0.079,0.39-0.139,0.608-0.178
		c0.22-0.04,0.439-0.06,0.658-0.06c0.428,0,0.807,0.087,1.138,0.262c0.33,0.174,0.585,0.422,0.765,0.743
		c0.18,0.322,0.27,0.694,0.27,1.119c0,0.481-0.1,0.895-0.302,1.239c-0.201,0.346-0.492,0.607-0.873,0.787s-0.832,0.27-1.353,0.27
		c-0.622,0-1.272-0.127-1.952-0.383v-1.143h0.652c0.108,0.366,0.271,0.636,0.488,0.809s0.499,0.259,0.844,0.259
		c0.478,0,0.839-0.144,1.083-0.432c0.244-0.287,0.367-0.717,0.367-1.288c0-0.381-0.065-0.696-0.194-0.946
		c-0.13-0.249-0.304-0.43-0.522-0.541c-0.22-0.111-0.475-0.167-0.766-0.167c-0.245,0-0.455,0.015-0.631,0.045
		c-0.176,0.031-0.365,0.078-0.566,0.144l-0.431-0.254v-3.547h2.97c0.122,0,0.21-0.01,0.265-0.029
		c0.054-0.02,0.097-0.051,0.129-0.092S684.156,244.224,684.199,244.108L684.199,244.108z"/>
	<text transform="matrix(1 0 0 1 695.3066 251.8105)"><tspan x="0" y="0" fill="#040000" font-family="'TimesNewRomanPSMT'" font-size="14.04">F</tspan><tspan x="7.809" y="0" fill="#040000" font-family="'TimesNewRomanPSMT'" font-size="14.04">ull</tspan><tspan x="22.798" y="0" fill="#040000" font-family="'TimesNewRomanPSMT'" font-size="14.04">y</tspan></text>
	<text transform="matrix(1 0 0 1 724.9473 251.8105)" fill="#040000" font-family="'TimesNewRomanPSMT'" font-size="14.04">-</text>
	<text transform="matrix(1 0 0 1 729.627 251.8105)"><tspan x="0" y="0" fill="#040000" font-family="'TimesNewRomanPSMT'" font-size="14.04">c</tspan><tspan x="6.231" y="0" fill="#040000" font-family="'TimesNewRomanPSMT'" font-size="14.04">onn</tspan><tspan x="27.459" y="0" fill="#040000" font-family="'TimesNewRomanPSMT'" font-size="14.04">.</tspan></text>
	<polygon fill-rule="evenodd" clip-rule="evenodd" fill="#91C7D5" points="852.18,117.518 860.882,117.518 860.882,182.38 
		852.18,182.38 852.18,117.518 	"/>
	<polygon fill-rule="evenodd" clip-rule="evenodd" fill="#75A0AD" points="860.882,117.518 866.58,111.819 866.58,176.682 
		860.882,182.38 860.882,117.518 	"/>
	<polygon fill-rule="evenodd" clip-rule="evenodd" fill="#A6D1DE" points="852.18,117.518 857.878,111.819 866.58,111.819 
		860.882,117.518 852.18,117.518 	"/>
	<path fill="none" stroke="#338196" stroke-width="2.04" stroke-miterlimit="8" d="M852.18,117.518l5.698-5.698h8.702v64.862
		l-5.698,5.698h-8.702V117.518L852.18,117.518z M852.18,117.518h8.702l5.698-5.698 M860.882,117.518v64.862"/>
	<text transform="matrix(1 0 0 1 827.0176 200.1387)"><tspan x="0" y="0" fill="#040000" font-family="'TimesNewRomanPSMT'" font-size="14.04">U</tspan><tspan x="10.083" y="0" fill="#040000" font-family="'TimesNewRomanPSMT'" font-size="14.04">s</tspan><tspan x="15.604" y="0" fill="#040000" font-family="'TimesNewRomanPSMT'" font-size="14.04">er</tspan><tspan x="26.511" y="0" fill="#040000" font-family="'TimesNewRomanPSMT'" font-size="14.04"> </tspan><tspan x="29.992" y="0" fill="#040000" font-family="'TimesNewRomanPSMT'" font-size="14.04">st</tspan><tspan x="39.469" y="0" fill="#040000" font-family="'TimesNewRomanPSMT'" font-size="14.04">r</tspan><tspan x="44.145" y="0" fill="#040000" font-family="'TimesNewRomanPSMT'" font-size="14.04">ok</tspan><tspan x="58.296" y="0" fill="#040000" font-family="'TimesNewRomanPSMT'" font-size="14.04">e</tspan></text>
	<text transform="matrix(1 0 0 1 828.5723 217.0527)"><tspan x="0" y="0" fill="#040000" font-family="'TimesNewRomanPSMT'" font-size="14.04">p</tspan><tspan x="7.076" y="0" fill="#040000" font-family="'TimesNewRomanPSMT'" font-size="14.04">r</tspan><tspan x="11.752" y="0" fill="#040000" font-family="'TimesNewRomanPSMT'" font-size="14.04">ob</tspan><tspan x="25.903" y="0" fill="#040000" font-family="'TimesNewRomanPSMT'" font-size="14.04">a</tspan><tspan x="32.135" y="0" fill="#040000" font-family="'TimesNewRomanPSMT'" font-size="14.04">b</tspan><tspan x="39.21" y="0" fill="#040000" font-family="'TimesNewRomanPSMT'" font-size="14.04">i</tspan><tspan x="43.055" y="0" fill="#040000" font-family="'TimesNewRomanPSMT'" font-size="14.04">l</tspan><tspan x="47.011" y="0" fill="#040000" font-family="'TimesNewRomanPSMT'" font-size="14.04">it</tspan><tspan x="54.699" y="0" fill="#040000" font-family="'TimesNewRomanPSMT'" font-size="14.04">y</tspan></text>
	<polygon fill-rule="evenodd" clip-rule="evenodd" fill="#91C7D5" points="807.84,141.85 816.3,141.85 816.3,133.359 
		824.76,150.339 816.3,167.319 816.3,158.83 807.84,158.83 807.84,141.85 	"/>
	<text transform="matrix(1 0 0 1 788.3848 178.3262)"><tspan x="0" y="0" fill="#040000" font-family="'TimesNewRomanPSMT'" font-size="14.04">so</tspan><tspan x="12.596" y="0" fill="#040000" font-family="'TimesNewRomanPSMT'" font-size="14.04">ft</tspan></text>
	<text transform="matrix(1 0 0 1 809.627 178.3262)" fill="#040000" font-family="'TimesNewRomanPSMT'" font-size="14.04">-</text>
	<text transform="matrix(1 0 0 1 814.2988 178.3262)"><tspan x="0" y="0" fill="#040000" font-family="'TimesNewRomanPSMT'" font-size="14.04">m</tspan><tspan x="10.683" y="0" fill="#040000" font-family="'TimesNewRomanPSMT'" font-size="14.04">ax</tspan></text>
	<polygon fill-rule="evenodd" clip-rule="evenodd" fill="#F2F2F2" points="39.06,186.971 244.828,186.971 244.828,302.619 
		39.06,302.619 39.06,186.971 	"/>
	<polygon fill-rule="evenodd" clip-rule="evenodd" fill="#C3C3C3" points="244.828,186.971 252.18,179.619 252.18,295.268 
		244.828,302.619 244.828,186.971 	"/>
	<polygon fill-rule="evenodd" clip-rule="evenodd" fill="#F6F5F5" points="39.06,186.971 46.411,179.619 252.18,179.619 
		244.828,186.971 39.06,186.971 	"/>
	<path fill="none" stroke="#7F7F7F" stroke-width="2.04" stroke-miterlimit="8" d="M39.06,186.971l7.352-7.352H252.18v115.648
		l-7.352,7.352H39.06V186.971L39.06,186.971z M39.06,186.971h205.769l7.352-7.352 M244.828,186.971v115.648"/>
	<text transform="matrix(1 0 0 1 77.2207 318.7949)"><tspan x="0" y="0" fill="#040000" font-family="'TimesNewRomanPSMT'" font-size="14.04">I</tspan><tspan x="4.675" y="0" fill="#040000" font-family="'TimesNewRomanPSMT'" font-size="14.04">nput</tspan><tspan x="29.861" y="0" fill="#040000" font-family="'TimesNewRomanPSMT'" font-size="14.04"> </tspan><tspan x="32.992" y="0" fill="#040000" font-family="'TimesNewRomanPSMT'" font-size="14.04">i</tspan><tspan x="36.949" y="0" fill="#040000" font-family="'TimesNewRomanPSMT'" font-size="14.04">m</tspan><tspan x="47.631" y="0" fill="#040000" font-family="'TimesNewRomanPSMT'" font-size="14.04">a</tspan><tspan x="53.862" y="0" fill="#040000" font-family="'TimesNewRomanPSMT'" font-size="14.04">g</tspan><tspan x="60.938" y="0" fill="#040000" font-family="'TimesNewRomanPSMT'" font-size="14.04">e</tspan><tspan x="67.17" y="0" fill="#040000" font-family="'TimesNewRomanPSMT'" font-size="14.04"> </tspan><tspan x="70.764" y="0" fill="#040000" font-family="'TimesNewRomanPSMT'" font-size="14.04">(</tspan></text>
	<text transform="matrix(1 0 0 1 152.6973 318.7949)" fill="#040000" font-family="'TimesNewRomanPS-ItalicMT'" font-size="14.04">c</text>
	<text transform="matrix(1 0 0 1 162.2988 318.7949)"><tspan x="0" y="0" fill="#040000" font-family="'TimesNewRomanPSMT'" font-size="14.04">c</tspan><tspan x="6.231" y="0" fill="#040000" font-family="'TimesNewRomanPSMT'" font-size="14.04">h</tspan><tspan x="13.308" y="0" fill="#040000" font-family="'TimesNewRomanPSMT'" font-size="14.04">a</tspan><tspan x="19.539" y="0" fill="#040000" font-family="'TimesNewRomanPSMT'" font-size="14.04">nn</tspan><tspan x="33.691" y="0" fill="#040000" font-family="'TimesNewRomanPSMT'" font-size="14.04">e</tspan><tspan x="39.923" y="0" fill="#040000" font-family="'TimesNewRomanPSMT'" font-size="14.04">ls</tspan><tspan x="49.4" y="0" fill="#040000" font-family="'TimesNewRomanPSMT'" font-size="14.04">)</tspan></text>
	<polygon fill="none" stroke="#E7211A" stroke-width="2.04" stroke-linejoin="round" stroke-miterlimit="10" points="
		154.26,200.619 195.66,200.619 195.66,244.779 154.26,244.779 154.26,200.619 	"/>
	
		<line fill="none" stroke="#E7211A" stroke-width="1.56" stroke-linejoin="round" stroke-miterlimit="10" x1="174.946" y1="200.701" x2="84.962" y2="155.829"/>
	<polyline fill="none" stroke="#E7211A" stroke-width="1.56" stroke-linecap="round" stroke-miterlimit="10" points="
		88.769,161.639 84.962,155.829 91.893,155.375 	"/>
	<path fill-rule="evenodd" clip-rule="evenodd" fill="#E7211A" d="M172.2,225.1c0-1.358,1.29-2.46,2.88-2.46
		c1.591,0,2.88,1.102,2.88,2.46s-1.289,2.46-2.88,2.46C173.489,227.56,172.2,226.458,172.2,225.1L172.2,225.1z"/>
	
		<line fill="none" stroke="#E7211A" stroke-width="1.56" stroke-linejoin="round" stroke-miterlimit="10" x1="178.02" y1="225.22" x2="416.58" y2="225.22"/>
	<polyline fill="none" stroke="#E7211A" stroke-width="1.56" stroke-linecap="round" stroke-miterlimit="10" points="
		410.581,221.719 416.58,225.22 410.58,228.719 	"/>
	<path fill="none" stroke="#DA6A14" stroke-width="1.56" stroke-linejoin="round" stroke-miterlimit="10" d="M0.78,34.899
		c0-5.5,0.743-9.96,1.66-9.96h334.24c0.917,0,1.66-4.459,1.66-9.96c0,5.501,0.743,9.96,1.659,9.96h334.24
		c0.917,0,1.66,4.459,1.66,9.96"/>
	<text transform="matrix(1 0 0 1 239.8066 13.2637)"><tspan x="0" y="0" fill="#040000" font-family="'TimesNewRomanPS-BoldMT'" font-size="15.96">V</tspan><tspan x="10.936" y="0" fill="#040000" font-family="'TimesNewRomanPS-BoldMT'" font-size="15.96">i</tspan><tspan x="15.37" y="0" fill="#040000" font-family="'TimesNewRomanPS-BoldMT'" font-size="15.96">s</tspan><tspan x="21.596" y="0" fill="#040000" font-family="'TimesNewRomanPS-BoldMT'" font-size="15.96">u</tspan><tspan x="30.472" y="0" fill="#040000" font-family="'TimesNewRomanPS-BoldMT'" font-size="15.96">a</tspan><tspan x="38.5" y="0" fill="#040000" font-family="'TimesNewRomanPS-BoldMT'" font-size="15.96">l</tspan><tspan x="42.934" y="0" fill="#040000" font-family="'TimesNewRomanPS-BoldMT'" font-size="15.96"> </tspan><tspan x="47.004" y="0" fill="#040000" font-family="'TimesNewRomanPS-BoldMT'" font-size="15.96">f</tspan><tspan x="52.287" y="0" fill="#040000" font-family="'TimesNewRomanPS-BoldMT'" font-size="15.96">e</tspan><tspan x="59.371" y="0" fill="#040000" font-family="'TimesNewRomanPS-BoldMT'" font-size="15.96">a</tspan><tspan x="67.399" y="0" fill="#040000" font-family="'TimesNewRomanPS-BoldMT'" font-size="15.96">t</tspan><tspan x="72.682" y="0" fill="#040000" font-family="'TimesNewRomanPS-BoldMT'" font-size="15.96">u</tspan><tspan x="81.558" y="0" fill="#040000" font-family="'TimesNewRomanPS-BoldMT'" font-size="15.96">r</tspan><tspan x="88.403" y="0" fill="#040000" font-family="'TimesNewRomanPS-BoldMT'" font-size="15.96">e</tspan><tspan x="95.487" y="0" fill="#040000" font-family="'TimesNewRomanPS-BoldMT'" font-size="15.96"> </tspan><tspan x="99.684" y="0" fill="#040000" font-family="'TimesNewRomanPS-BoldMT'" font-size="15.96">e</tspan><tspan x="106.768" y="0" fill="#040000" font-family="'TimesNewRomanPS-BoldMT'" font-size="15.96">x</tspan><tspan x="114.796" y="0" fill="#040000" font-family="'TimesNewRomanPS-BoldMT'" font-size="15.96">t</tspan><tspan x="120.079" y="0" fill="#040000" font-family="'TimesNewRomanPS-BoldMT'" font-size="15.96">r</tspan><tspan x="127.163" y="0" fill="#040000" font-family="'TimesNewRomanPS-BoldMT'" font-size="15.96">a</tspan><tspan x="135.19" y="0" fill="#040000" font-family="'TimesNewRomanPS-BoldMT'" font-size="15.96">c</tspan><tspan x="142.274" y="0" fill="#040000" font-family="'TimesNewRomanPS-BoldMT'" font-size="15.96">t</tspan><tspan x="147.558" y="0" fill="#040000" font-family="'TimesNewRomanPS-BoldMT'" font-size="15.96">o</tspan><tspan x="155.585" y="0" fill="#040000" font-family="'TimesNewRomanPS-BoldMT'" font-size="15.96">r</tspan></text>
	<text transform="matrix(1 0 0 1 406.4863 13.2637)"><tspan x="0" y="0" fill="#040000" font-family="'TimesNewRomanPS-BoldMT'" font-size="15.96">(</tspan><tspan x="5.283" y="0" fill="#040000" font-family="'TimesNewRomanPS-BoldMT'" font-size="15.96">V</tspan><tspan x="16.809" y="0" fill="#040000" font-family="'TimesNewRomanPS-BoldMT'" font-size="15.96">F</tspan><tspan x="26.542" y="0" fill="#040000" font-family="'TimesNewRomanPS-BoldMT'" font-size="15.96">E</tspan><tspan x="37.219" y="0" fill="#040000" font-family="'TimesNewRomanPS-BoldMT'" font-size="15.96">)</tspan></text>
	<path fill="none" stroke="#4C7BB2" stroke-width="1.56" stroke-linejoin="round" stroke-miterlimit="10" d="M386.819,287.499
		c0,7.556,1.021,13.681,2.28,13.681h139.98c1.259,0,2.279,6.124,2.279,13.68c0-7.556,1.021-13.68,2.28-13.68h139.98
		c1.259,0,2.279-6.125,2.279-13.681"/>
	<text transform="matrix(1 0 0 1 427.1504 323.0605)"><tspan x="0" y="0" fill="#040000" font-family="'TimesNewRomanPS-BoldMT'" font-size="15.96">Sp</tspan><tspan x="17.752" y="0" fill="#040000" font-family="'TimesNewRomanPS-BoldMT'" font-size="15.96">a</tspan><tspan x="25.78" y="0" fill="#040000" font-family="'TimesNewRomanPS-BoldMT'" font-size="15.96">t</tspan><tspan x="31.063" y="0" fill="#040000" font-family="'TimesNewRomanPS-BoldMT'" font-size="15.96">i</tspan><tspan x="35.497" y="0" fill="#040000" font-family="'TimesNewRomanPS-BoldMT'" font-size="15.96">a</tspan><tspan x="43.525" y="0" fill="#040000" font-family="'TimesNewRomanPS-BoldMT'" font-size="15.96">l</tspan><tspan x="47.96" y="0" fill="#040000" font-family="'TimesNewRomanPS-BoldMT'" font-size="15.96"> </tspan><tspan x="52.03" y="0" fill="#040000" font-family="'TimesNewRomanPS-BoldMT'" font-size="15.96">f</tspan><tspan x="57.313" y="0" fill="#040000" font-family="'TimesNewRomanPS-BoldMT'" font-size="15.96">e</tspan><tspan x="64.396" y="0" fill="#040000" font-family="'TimesNewRomanPS-BoldMT'" font-size="15.96">a</tspan><tspan x="72.425" y="0" fill="#040000" font-family="'TimesNewRomanPS-BoldMT'" font-size="15.96">t</tspan><tspan x="77.708" y="0" fill="#040000" font-family="'TimesNewRomanPS-BoldMT'" font-size="15.96">u</tspan><tspan x="86.584" y="0" fill="#040000" font-family="'TimesNewRomanPS-BoldMT'" font-size="15.96">r</tspan><tspan x="93.429" y="0" fill="#040000" font-family="'TimesNewRomanPS-BoldMT'" font-size="15.96">e</tspan><tspan x="100.513" y="0" fill="#040000" font-family="'TimesNewRomanPS-BoldMT'" font-size="15.96"> </tspan><tspan x="104.821" y="0" fill="#040000" font-family="'TimesNewRomanPS-BoldMT'" font-size="15.96">e</tspan><tspan x="111.905" y="0" fill="#040000" font-family="'TimesNewRomanPS-BoldMT'" font-size="15.96">x</tspan><tspan x="119.934" y="0" fill="#040000" font-family="'TimesNewRomanPS-BoldMT'" font-size="15.96">t</tspan><tspan x="125.217" y="0" fill="#040000" font-family="'TimesNewRomanPS-BoldMT'" font-size="15.96">r</tspan><tspan x="132.301" y="0" fill="#040000" font-family="'TimesNewRomanPS-BoldMT'" font-size="15.96">a</tspan><tspan x="140.329" y="0" fill="#040000" font-family="'TimesNewRomanPS-BoldMT'" font-size="15.96">c</tspan><tspan x="147.413" y="0" fill="#040000" font-family="'TimesNewRomanPS-BoldMT'" font-size="15.96">t</tspan><tspan x="152.695" y="0" fill="#040000" font-family="'TimesNewRomanPS-BoldMT'" font-size="15.96">o</tspan><tspan x="160.724" y="0" fill="#040000" font-family="'TimesNewRomanPS-BoldMT'" font-size="15.96">r</tspan><tspan x="167.568" y="0" fill="#040000" font-family="'TimesNewRomanPS-BoldMT'" font-size="15.96"> </tspan><tspan x="171.766" y="0" fill="#040000" font-family="'TimesNewRomanPS-BoldMT'" font-size="15.96">(</tspan><tspan x="177.049" y="0" fill="#040000" font-family="'TimesNewRomanPS-BoldMT'" font-size="15.96">S</tspan><tspan x="185.925" y="0" fill="#040000" font-family="'TimesNewRomanPS-BoldMT'" font-size="15.96">F</tspan><tspan x="195.657" y="0" fill="#040000" font-family="'TimesNewRomanPS-BoldMT'" font-size="15.96">E</tspan><tspan x="206.335" y="0" fill="#040000" font-family="'TimesNewRomanPS-BoldMT'" font-size="15.96">)</tspan></text>
	<path fill="none" stroke="#913634" stroke-width="1.56" stroke-linejoin="round" stroke-miterlimit="10" d="M675.899,84.22
		c0-5.501,0.743-9.96,1.66-9.96h40.54c0.917,0,1.66-4.459,1.66-9.96c0,5.5,0.743,9.96,1.66,9.96h40.54c0.916,0,1.66,4.459,1.66,9.96
		"/>
	<text transform="matrix(1 0 0 1 698.9316 43.1777)"><tspan x="0" y="0" fill="#040000" font-family="'TimesNewRomanPS-BoldMT'" font-size="15.96">F</tspan><tspan x="9.733" y="0" fill="#040000" font-family="'TimesNewRomanPS-BoldMT'" font-size="15.96">e</tspan><tspan x="16.817" y="0" fill="#040000" font-family="'TimesNewRomanPS-BoldMT'" font-size="15.96">a</tspan><tspan x="24.846" y="0" fill="#040000" font-family="'TimesNewRomanPS-BoldMT'" font-size="15.96">t</tspan><tspan x="30.128" y="0" fill="#040000" font-family="'TimesNewRomanPS-BoldMT'" font-size="15.96">u</tspan><tspan x="39.004" y="0" fill="#040000" font-family="'TimesNewRomanPS-BoldMT'" font-size="15.96">r</tspan><tspan x="45.849" y="0" fill="#040000" font-family="'TimesNewRomanPS-BoldMT'" font-size="15.96">e</tspan></text>
	<text transform="matrix(1 0 0 1 672.8926 62.3887)"><tspan x="0" y="0" fill="#040000" font-family="'TimesNewRomanPS-BoldMT'" font-size="15.96">C</tspan><tspan x="11.525" y="0" fill="#040000" font-family="'TimesNewRomanPS-BoldMT'" font-size="15.96">o</tspan><tspan x="19.554" y="0" fill="#040000" font-family="'TimesNewRomanPS-BoldMT'" font-size="15.96">m</tspan><tspan x="32.642" y="0" fill="#040000" font-family="'TimesNewRomanPS-BoldMT'" font-size="15.96">bine</tspan><tspan x="61.912" y="0" fill="#040000" font-family="'TimesNewRomanPS-BoldMT'" font-size="15.96">r</tspan><tspan x="68.756" y="0" fill="#040000" font-family="'TimesNewRomanPS-BoldMT'" font-size="15.96"> </tspan><tspan x="73.065" y="0" fill="#040000" font-family="'TimesNewRomanPS-BoldMT'" font-size="15.96">(</tspan><tspan x="78.349" y="0" fill="#040000" font-family="'TimesNewRomanPS-BoldMT'" font-size="15.96">F</tspan><tspan x="88.081" y="0" fill="#040000" font-family="'TimesNewRomanPS-BoldMT'" font-size="15.96">C)</tspan></text>
	<path fill="none" stroke="#338196" stroke-width="1.56" stroke-linejoin="round" stroke-miterlimit="10" d="M779.819,105.58
		c0-5.501,0.743-9.96,1.66-9.96h40.54c0.917,0,1.66-4.459,1.66-9.96c0,5.501,0.743,9.96,1.66,9.96h40.54
		c0.917,0,1.66,4.459,1.66,9.96"/>
	<text transform="matrix(1 0 0 1 765.4551 82.4512)"><tspan x="0" y="0" fill="#040000" font-family="'TimesNewRomanPS-BoldMT'" font-size="15.96">L</tspan><tspan x="10.678" y="0" fill="#040000" font-family="'TimesNewRomanPS-BoldMT'" font-size="15.96">a</tspan><tspan x="18.706" y="0" fill="#040000" font-family="'TimesNewRomanPS-BoldMT'" font-size="15.96">bel</tspan><tspan x="39.101" y="0" fill="#040000" font-family="'TimesNewRomanPS-BoldMT'" font-size="15.96"> </tspan><tspan x="43.074" y="0" fill="#040000" font-family="'TimesNewRomanPS-BoldMT'" font-size="15.96">e</tspan><tspan x="50.158" y="0" fill="#040000" font-family="'TimesNewRomanPS-BoldMT'" font-size="15.96">s</tspan><tspan x="56.386" y="0" fill="#040000" font-family="'TimesNewRomanPS-BoldMT'" font-size="15.96">t</tspan><tspan x="61.668" y="0" fill="#040000" font-family="'TimesNewRomanPS-BoldMT'" font-size="15.96">i</tspan><tspan x="66.103" y="0" fill="#040000" font-family="'TimesNewRomanPS-BoldMT'" font-size="15.96">m</tspan><tspan x="79.19" y="0" fill="#040000" font-family="'TimesNewRomanPS-BoldMT'" font-size="15.96">a</tspan><tspan x="87.219" y="0" fill="#040000" font-family="'TimesNewRomanPS-BoldMT'" font-size="15.96">t</tspan><tspan x="92.501" y="0" fill="#040000" font-family="'TimesNewRomanPS-BoldMT'" font-size="15.96">o</tspan><tspan x="100.529" y="0" fill="#040000" font-family="'TimesNewRomanPS-BoldMT'" font-size="15.96">r</tspan><tspan x="107.374" y="0" fill="#040000" font-family="'TimesNewRomanPS-BoldMT'" font-size="15.96"> </tspan><tspan x="111.923" y="0" fill="#040000" font-family="'TimesNewRomanPS-BoldMT'" font-size="15.96">(</tspan><tspan x="117.205" y="0" fill="#040000" font-family="'TimesNewRomanPS-BoldMT'" font-size="15.96">LE</tspan><tspan x="138.56" y="0" fill="#040000" font-family="'TimesNewRomanPS-BoldMT'" font-size="15.96">)</tspan></text>
	<path fill="#040000" d="M674.069,117.189c0.669,0,1.174,0.146,1.516,0.439c0.341,0.293,0.512,0.718,0.512,1.275
		c0,0.19-0.019,0.366-0.057,0.526c-0.038,0.16-0.097,0.318-0.178,0.474s-0.189,0.324-0.326,0.504s-0.287,0.362-0.453,0.547
		c-0.165,0.185-0.451,0.493-0.857,0.924c-0.683,0.723-1.184,1.354-1.504,1.893h2.033c0.176,0,0.317-0.011,0.426-0.033
		c0.107-0.021,0.193-0.057,0.258-0.108c0.065-0.05,0.116-0.116,0.154-0.196c0.037-0.081,0.085-0.206,0.143-0.375h0.458l-0.091,1.574
		h-4.438v-0.259c0.155-0.377,0.363-0.764,0.626-1.159c0.263-0.395,0.634-0.86,1.116-1.396c0.416-0.46,0.717-0.809,0.899-1.046
		c0.201-0.259,0.352-0.482,0.45-0.671c0.099-0.189,0.17-0.367,0.213-0.534s0.064-0.335,0.064-0.504c0-0.27-0.043-0.508-0.129-0.714
		s-0.219-0.37-0.396-0.488c-0.178-0.119-0.401-0.178-0.671-0.178c-0.672,0-1.125,0.374-1.358,1.122h-0.652v-1.035
		c0.435-0.205,0.842-0.353,1.221-0.445C673.428,117.235,673.768,117.189,674.069,117.189L674.069,117.189z"/>
	<path fill="#040000" d="M686.515,120.752c-0.176,0-0.346,0.02-0.51,0.059c-0.163,0.04-0.316,0.097-0.461,0.173
		c-0.144,0.075-0.283,0.17-0.42,0.286c-0.043,0.04-0.076,0.081-0.098,0.124c-0.035,0.068-0.059,0.153-0.069,0.253
		s-0.017,0.27-0.017,0.507c0,0.686,0.115,1.209,0.345,1.568c0.23,0.359,0.579,0.539,1.046,0.539c0.27,0,0.496-0.047,0.68-0.14
		s0.331-0.222,0.444-0.385s0.194-0.356,0.243-0.577c0.048-0.221,0.072-0.461,0.072-0.719c0-0.532-0.109-0.946-0.329-1.243
		C687.223,120.901,686.913,120.752,686.515,120.752L686.515,120.752z M687.9,117.189l0.221,0.296v0.264
		c-0.554,0-1.044,0.119-1.472,0.355c-0.428,0.237-0.782,0.586-1.064,1.046s-0.48,1.006-0.596,1.639l0.054,0.021
		c0.302-0.215,0.6-0.374,0.893-0.474c0.292-0.101,0.609-0.151,0.951-0.151c0.406,0,0.752,0.089,1.037,0.267
		c0.286,0.178,0.501,0.428,0.645,0.75s0.216,0.698,0.216,1.129c0,0.467-0.09,0.879-0.27,1.237c-0.18,0.357-0.457,0.639-0.833,0.843
		c-0.376,0.205-0.838,0.307-1.388,0.307c-0.787,0-1.381-0.244-1.782-0.733c-0.4-0.489-0.601-1.209-0.601-2.162
		c0-0.64,0.101-1.238,0.302-1.795c0.201-0.557,0.487-1.043,0.857-1.458c0.37-0.415,0.799-0.742,1.288-0.981
		C686.847,117.352,687.361,117.218,687.9,117.189L687.9,117.189z M681.699,116.92h0.421l-0.081,1.25h-3.1v2.367
		c0.187-0.079,0.39-0.139,0.608-0.178c0.22-0.04,0.438-0.059,0.658-0.059c0.428,0,0.807,0.087,1.138,0.261
		c0.33,0.174,0.585,0.422,0.765,0.744c0.18,0.321,0.27,0.694,0.27,1.119c0,0.481-0.101,0.895-0.302,1.24
		c-0.201,0.345-0.492,0.607-0.873,0.787s-0.832,0.27-1.353,0.27c-0.622,0-1.272-0.127-1.952-0.382v-1.143h0.652
		c0.108,0.367,0.271,0.636,0.488,0.809c0.217,0.173,0.498,0.259,0.844,0.259c0.478,0,0.839-0.144,1.083-0.431
		s0.367-0.717,0.367-1.289c0-0.381-0.065-0.696-0.194-0.946c-0.13-0.25-0.304-0.43-0.523-0.542
		c-0.219-0.111-0.474-0.167-0.765-0.167c-0.245,0-0.455,0.015-0.631,0.046c-0.177,0.031-0.365,0.078-0.566,0.143l-0.432-0.253
		v-3.547h2.971c0.122,0,0.21-0.01,0.264-0.029c0.055-0.02,0.098-0.051,0.13-0.092C681.618,117.113,681.656,117.035,681.699,116.92
		L681.699,116.92z"/>
	<text transform="matrix(1 0 0 1 692.8066 124.623)"><tspan x="0" y="0" fill="#040000" font-family="'TimesNewRomanPSMT'" font-size="14.04">F</tspan><tspan x="7.809" y="0" fill="#040000" font-family="'TimesNewRomanPSMT'" font-size="14.04">ull</tspan><tspan x="22.798" y="0" fill="#040000" font-family="'TimesNewRomanPSMT'" font-size="14.04">y</tspan></text>
	<text transform="matrix(1 0 0 1 722.4473 124.623)" fill="#040000" font-family="'TimesNewRomanPSMT'" font-size="14.04">-</text>
	<text transform="matrix(1 0 0 1 727.127 124.623)"><tspan x="0" y="0" fill="#040000" font-family="'TimesNewRomanPSMT'" font-size="14.04">c</tspan><tspan x="6.231" y="0" fill="#040000" font-family="'TimesNewRomanPSMT'" font-size="14.04">onn</tspan><tspan x="27.459" y="0" fill="#040000" font-family="'TimesNewRomanPSMT'" font-size="14.04">.</tspan></text>
	<text transform="matrix(1 0 0 1 724.4551 155.4121)" fill="#040000" font-family="'TimesNewRomanPSMT'" font-size="14.04">+ </text>
	<text transform="matrix(1 0 0 1 713.0488 172.209)"><tspan x="0" y="0" fill="#040000" font-family="'TimesNewRomanPSMT'" font-size="14.04">Re</tspan><tspan x="15.596" y="0" fill="#040000" font-family="'TimesNewRomanPSMT'" font-size="14.04">L</tspan><tspan x="24.115" y="0" fill="#040000" font-family="'TimesNewRomanPSMT'" font-size="14.04">U</tspan></text>
	<text transform="matrix(1 0 0 1 724.4551 189.0137)" fill="#040000" font-family="'TimesNewRomanPSMT'" font-size="14.04">+ </text>
</g>
</svg>
